<svg xmlns="http://www.w3.org/2000/svg" width="256" height="256"><path fill="#1976D2" fill-opacity=".016" fill-rule="evenodd" d="M0 128.004v128.004l128.25-.254 128.25-.254.254-127.75L257.008 0H0zm.485.496c0 70.4.119 99.053.265 63.672s.146-92.98 0-128S.485 58.1.485 128.5"/><path fill="#1976D2" fill-opacity=".091" fill-rule="evenodd" d="M4 22q0 2-2 2t-2 2 2 2c1.467 0 2 .667 2 2.5S3.467 33 2 33q-2 0-2 2t2 2 2 2-2 2-2 2 2 2 2-2c0-1.467.667-2 2.5-2S9 40.467 9 39q0-2 2-2c2.833 0 2.69 3.759-.159 4.18-3.129.463-3.351 3.82-.253 3.82C12.333 45 13 44.447 13 43q0-2 2-2t2 2 2 2 2-2c0-1.467.667-2 2.5-2s2.5.533 2.5 2q0 2 2 2t2-2 2-2 2 2 2 2 2-2c0-1.467.667-2 2.5-2s2.5.533 2.5 2q0 2 2 2t2-2 2-2 2 2c0 1.296.667 2 1.893 2 1.041 0 2.131.62 2.422 1.378C55.921 47.957 54.221 50 52.3 50c-.715 0-1.3.717-1.3 1.594 0 .876-.805 1.804-1.789 2.061-.985.258-2.222 1.453-2.75 2.657-1.165 2.654-2.844 2.514-3.281-.272-.22-1.406-1.074-2.04-2.75-2.04-1.763 0-2.43-.549-2.43-2 0-1.467.667-2 2.5-2s2.5.533 2.5 2q0 2 2 2t2-2-2-2-2-2c0-1.467-.667-2-2.5-2s-2.5.533-2.5 2q0 2-2 2t-2-2-2-2-2 2-2 2-2-2c0-1.467-.667-2-2.5-2s-2.5.533-2.5 2q0 2-2 2t-2-2-2-2-2 2-2 2-2-2c0-1.467-.667-2-2.5-2S4 46.533 4 48q0 2-2 2t-2 2 2 2 2 2-2 2c-1.467 0-2 .667-2 2.5S.533 63 2 63q2 0 2 2t-2 2-2 2 2 2 2 2-2 2c-1.467 0-2 .667-2 2.5S.533 80 2 80q2 0 2 2t-2 2-2 2 2 2 2 2-2 2c-1.467 0-2 .667-2 2.5S.533 97 2 97q2 0 2 2t-2 2-2 2 2 2 2 2c0 1.467.667 2 2.5 2s2.5-.533 2.5-2q0-2 2-2t2 2 2 2 2-2c0-1.356.667-2 2.07-2 1.574 0 1.993.539 1.75 2.25-.176 1.237-.995 2.25-1.82 2.25s-1.652 1.076-1.838 2.391c-.266 1.878.017 2.254 1.315 1.756 1.34-.514 1.521-.208.956 1.609-.383 1.234-1.088 2.394-1.565 2.577-1.21.465-1.092 4.167.132 4.167.55 0 1 1.152 1 2.559 0 1.451-.433 2.292-1 1.941-.55-.34-1-1.491-1-2.559 0-1.274-.687-1.941-2-1.941q-2 0-2-2t2-2 2-2-2-2-2-2c0-1.447-.667-2-2.412-2-3.098 0-2.876 3.357.253 3.82 2.849.421 2.992 4.18.159 4.18q-2 0-2-2c0-1.467-.667-2-2.5-2s-2.5-.533-2.5-2q0-2-2-2t-2 2 2 2 2 2-2 2-2 2 2 2c1.467 0 2 .667 2 2.5s-.533 2.5-2 2.5q-2 0-2 2t2 2 2 2-2 2-2 2 2 2c1.467 0 2 .667 2 2.5s-.533 2.5-2 2.5q-2 0-2 2t2 2 2 2-2 2-2 2 2 2c1.467 0 2 .667 2 2.5s-.533 2.5-2 2.5q-2 0-2 2t2 2 2 2-2 2-2 2 2 2 2-2c0-1.467.667-2 2.5-2s2.5-.533 2.5-2q0-2 2-2c2.833 0 2.69 3.759-.159 4.18-3.129.463-3.351 3.82-.253 3.82 1.745 0 2.412-.553 2.412-2q0-2 2-2t2 2 2 2c1.292 0 2-.667 2-1.883 0-1.184.874-2.051 2.353-2.334 2.009-.384 2.364-.036 2.433 2.384.067 2.357-.329 2.833-2.353 2.833-1.766 0-2.433.548-2.433 2q0 2-2 2t-2-2-2-2-2 2-2 2-2-2c0-1.467-.667-2-2.5-2s-2.5.533-2.5 2q0 2-2 2t-2 2 2 2 2 2-2 2c-1.467 0-2 .667-2 2.5s.533 2.5 2 2.5q2 0 2 2t-2 2-2 2 2 2 2 2-2 2c-1.467 0-2 .667-2 2.5s.533 2.5 2 2.5q2 0 2 2t-2 2-2 2 2 2 2 2-2 2c-1.467 0-2 .667-2 2.5s.533 2.5 2 2.5q2 0 2 2t-2 2-2 2 2 2c1.111 0 2 .667 2 1.5 0 .933.944 1.5 2.5 1.5s2.5-.567 2.5-1.5c0-.833.889-1.5 2-1.5s2 .667 2 1.5.889 1.5 2 1.5 2-.667 2-1.5.889-1.5 2-1.5 2 .667 2 1.5c0 .933.944 1.5 2.5 1.5s2.5-.567 2.5-1.5c0-.833.889-1.5 2-1.5s2 .667 2 1.5.889 1.5 2 1.5 2-.667 2-1.5.889-1.5 2-1.5 2 .667 2 1.5c0 .933.944 1.5 2.5 1.5s2.5-.567 2.5-1.5c0-.833.889-1.5 2-1.5s2 .667 2 1.5.889 1.5 2 1.5 2-.667 2-1.5.889-1.5 2-1.5 2 .667 2 1.5c0 .933.944 1.5 2.5 1.5s2.5-.567 2.5-1.5c0-.833.889-1.5 2-1.5s2 .667 2 1.5.889 1.5 2 1.5 2-.667 2-1.5c0-.933.944-1.5 2.5-1.5 1.833 0 2.5-.533 2.5-2 0-1.309.667-2 1.93-2 1.241 0 2.045-.804 2.25-2.25l.32-2.25 2.25 2.25c1.238 1.238 2.588 2.197 3 2.132 2.212-.35 3.011.317 2.54 2.118-.698 2.67-4.29 2.67-4.29 0q0-2-2-2c-1.309 0-2 .667-2 1.93 0 1.241-.804 2.045-2.25 2.25-1.237.176-2.25.77-2.25 1.32s1.013 1.144 2.25 1.32c1.513.214 2.25-.195 2.25-1.25 0-.903.849-1.57 2-1.57 1.111 0 2 .667 2 1.5s.889 1.5 2 1.5 2-.667 2-1.5c0-.92.935-1.5 2.417-1.5 1.329 0 2.62-.563 2.869-1.25.362-1 .876-1 2.57 0 1.164.687 3.009 1.25 4.099 1.25 1.351 0 1.799.478 1.407 1.5-.395 1.029.06 1.5 1.448 1.5 1.113 0 2.178-.464 2.367-1.031.234-.701 1.349-.682 3.48.061 3.72 1.297 39.838.899 42.757-.472 1.378-.646 1.712-.57 1.191.272-.48.777.137 1.17 1.836 1.17 1.407 0 2.559-.565 2.559-1.255 0-1.522 7.35-4.037 7.833-2.681.184.515 1.196.936 2.25.936s1.917.675 1.917 1.5c0 .933.944 1.5 2.5 1.5s2.5-.567 2.5-1.5c0-.833.889-1.5 2-1.5s2 .667 2 1.5.889 1.5 2 1.5 2-.667 2-1.5.889-1.5 2-1.5 2 .667 2 1.5c0 .933.944 1.5 2.5 1.5s2.5-.567 2.5-1.5c0-.833.889-1.5 2-1.5s2 .667 2 1.5.889 1.5 2 1.5 2-.667 2-1.5c0-.933.944-1.5 2.5-1.5 1.833 0 2.5-.533 2.5-2q0-2 2-2c2.901 0 2.676 3.765-.25 4.18-1.238.176-2.25.77-2.25 1.32s1.012 1.144 2.25 1.32c1.513.214 2.25-.195 2.25-1.25 0-.903.849-1.57 2-1.57 1.111 0 2 .667 2 1.5s.889 1.5 2 1.5 2-.667 2-1.5c0-.933.944-1.5 2.5-1.5s2.5.567 2.5 1.5c0 .833.889 1.5 2 1.5s2-.667 2-1.5.889-1.5 2-1.5 2 .667 2 1.5.889 1.5 2 1.5 2-.667 2-1.5c0-.933.944-1.5 2.5-1.5s2.5.567 2.5 1.5c0 .833.889 1.5 2 1.5s2-.667 2-1.5.889-1.5 2-1.5c1.151 0 2 .667 2 1.57 0 1.055.737 1.464 2.25 1.25 1.238-.176 2.25-.77 2.25-1.32s-1.012-1.144-2.25-1.32c-2.926-.415-3.151-4.18-.25-4.18q2 0 2 2c0 1.467.667 2 2.5 2 1.556 0 2.5.567 2.5 1.5 0 .833.889 1.5 2 1.5s2-.667 2-1.5-.889-1.5-2-1.5q-2 0-2-2t2-2c1.2 0 2 .667 2 1.667 0 .916.268 1.399.595 1.071.327-.327.292-1.977-.079-3.666-.468-2.129-1.265-3.072-2.595-3.072-1.382 0-1.921-.701-1.921-2.5 0-1.833.533-2.5 2-2.5 1.385 0 2 .667 2 2.167 0 1.191.279 1.887.62 1.546s.321-2.216-.045-4.166c-.493-2.626-1.173-3.547-2.62-3.547-1.288 0-1.955-.682-1.955-2q0-2 2-2c1.2 0 2 .667 2 1.667 0 .916.268 1.399.595 1.071.327-.327.292-1.977-.079-3.666-.468-2.129-1.265-3.072-2.595-3.072-1.382 0-1.921-.701-1.921-2.5 0-1.833.533-2.5 2-2.5 1.385 0 2 .667 2 2.167 0 1.191.279 1.887.62 1.546s.321-2.216-.045-4.166c-.493-2.626-1.173-3.547-2.62-3.547-1.288 0-1.955-.682-1.955-2q0-2 2-2c1.2 0 2 .667 2 1.667 0 .916.268 1.399.595 1.071.327-.327.292-1.977-.079-3.666-.468-2.129-1.265-3.072-2.595-3.072-1.382 0-1.921-.701-1.921-2.5 0-1.833.533-2.5 2-2.5 1.385 0 2 .667 2 2.167 0 1.191.279 1.887.62 1.546s.321-2.216-.045-4.166c-.493-2.626-1.173-3.547-2.62-3.547-1.288 0-1.955-.682-1.955-2q0-2 2-2c1.2 0 2 .667 2 1.667 0 .916.268 1.399.595 1.071.327-.327.292-1.977-.079-3.666-.79-3.596-4.516-4.481-4.516-1.072 0 1.467-.667 2-2.5 2s-2.5.533-2.5 2q0 2-2 2c-2.833 0-2.69-3.759.159-4.18 3.129-.463 3.351-3.82.253-3.82-1.745 0-2.412.553-2.412 2q0 2-2 2t-2-2-2-2-2 2c0 1.467-.667 2-2.5 2-1.782 0-2.5-.541-2.5-1.883 0-1.043-.893-2.117-2-2.407-1.591-.416-2-.03-2 1.884 0 1.739.554 2.406 2 2.406q2 0 2 2t-2 2-2-2c0-1.1-.653-2-1.451-2-2.059 0 1.731-8.373 4.004-8.844 1.241-.257 1.519-1.047 1.102-3.133-.592-2.957.945-10.066 2.138-9.89 2.212.325 3.207-.369 3.207-2.24 0-1.462-.459-1.931-1.5-1.531-1.962.753-1.962-1.757 0-3.719 1.56-1.56 2.058-4.643.75-4.643-.412 0-.75-6.75-.75-15s.338-15 .75-15 .75-1.125.75-2.5c0-1.833.533-2.5 2-2.5q2 0 2-2t2-2 2 2c0 1.447.667 2 2.412 2 3.098 0 2.876-3.357-.253-3.82-2.849-.421-2.992-4.18-.159-4.18q2 0 2 2c0 1.467.667 2 2.5 2s2.5.533 2.5 2q0 2 2 2c1.385 0 2 .667 2 2.167 0 1.191.254 1.912.564 1.602.311-.311.261-2.186-.111-4.167-.492-2.626-1.187-3.602-2.564-3.602-1.222 0-1.889-.706-1.889-2q0-2 2-2c1.2 0 2 .667 2 1.667 0 .916.268 1.399.595 1.071.327-.327.292-1.977-.079-3.666-.468-2.129-1.265-3.072-2.595-3.072-1.382 0-1.921-.701-1.921-2.5 0-1.833.533-2.5 2-2.5 1.385 0 2 .667 2 2.167 0 1.191.279 1.887.62 1.546s.321-2.216-.045-4.166c-.493-2.626-1.173-3.547-2.62-3.547-1.288 0-1.955-.682-1.955-2q0-2 2-2c1.2 0 2 .667 2 1.667 0 .916.268 1.399.595 1.071.327-.327.292-1.977-.079-3.666-.468-2.129-1.265-3.072-2.595-3.072-1.382 0-1.921-.701-1.921-2.5 0-1.833.533-2.5 2-2.5 1.385 0 2 .667 2 2.167 0 1.191.279 1.887.62 1.546s.321-2.216-.045-4.166c-.493-2.626-1.173-3.547-2.62-3.547-1.288 0-1.955-.682-1.955-2q0-2 2-2c1.2 0 2 .667 2 1.667 0 .916.268 1.399.595 1.071.327-.327.292-1.977-.079-3.666-.468-2.129-1.265-3.072-2.595-3.072-1.382 0-1.921-.701-1.921-2.5 0-1.833.533-2.5 2-2.5 1.385 0 2 .667 2 2.167 0 1.191.279 1.887.62 1.546s.321-2.216-.045-4.166c-.493-2.626-1.173-3.547-2.62-3.547-1.288 0-1.955-.682-1.955-2q0-2 2-2c1.2 0 2 .667 2 1.667 0 .916.268 1.399.595 1.071.327-.327.292-1.977-.079-3.666C255.726 45.476 252 44.591 252 48c0 1.467-.667 2-2.5 2s-2.5.533-2.5 2q0 2-2 2c-2.833 0-2.69-3.759.159-4.18 3.129-.463 3.351-3.82.253-3.82-1.745 0-2.412.553-2.412 2q0 2-2 2t-2-2-2-2-2 2c0 1.467-.667 2-2.5 2s-2.5-.533-2.5-2q0-2-2-2t-2 2-2 2-2-2-2-2-2 2c0 1.467-.667 2-2.5 2s-2.5-.533-2.5-2q0-2-2-2t-2 2-2 2-2 2 2 2 2-2 2-2 2 2-2 2-2 2 2 2 2-2c0-1.467.667-2 2.5-2s2.5.533 2.5 2-.667 2-2.5 2c-2 0-2.5.5-2.5 2.5s.5 2.5 2.5 2.5 2.5-.5 2.5-2.5c0-1.833.533-2.5 2-2.5s2 .667 2 2.5-.533 2.5-2 2.5q-2 0-2 2c0 3.608-2.402 2.115-9.254-5.75-3.713-4.262-8.978-9.55-11.699-11.75-5.261-4.254-6.314-6.5-3.047-6.5q2 0 2-2c0-1.467.667-2 2.5-2s2.5.533 2.5 2-.667 2-2.5 2c-2.027 0-2.5.493-2.5 2.607 0 1.966.389 2.458 1.582 2 .87-.334 1.995-.607 2.5-.607s.918-.9.918-2q0-2 2-2t2 2 2 2 2-2 2-2 2 2c0 1.467.667 2 2.5 2s2.5-.533 2.5-2q0-2 2-2t2 2 2 2 2-2 2-2 2 2c0 1.467.667 2 2.5 2s2.5-.533 2.5-2q0-2 2-2t2 2 2 2 2-2 2-2 2 2c0 1.467.667 2 2.5 2s2.5-.533 2.5-2q0-2 2-2c1.2 0 2 .667 2 1.667 0 .916.268 1.399.595 1.071.327-.327.292-1.977-.079-3.666-.468-2.129-1.265-3.072-2.595-3.072-1.254 0-1.921-.694-1.921-2q0-2 2-2c1.2 0 2 .667 2 1.667 0 .916.254 1.412.564 1.102.311-.311.261-2.186-.111-4.167-.492-2.626-1.187-3.602-2.564-3.602-1.222 0-1.889-.706-1.889-2q0-2 2-2c1.2 0 2 .667 2 1.667 0 .916.268 1.399.595 1.071.327-.327.292-1.977-.079-3.666C255.726 19.476 252 18.591 252 22c0 1.467-.667 2-2.5 2s-2.5-.533-2.5-2q0-2-2-2t-2 2-2 2-2-2-2-2-2 2c0 1.467-.667 2-2.5 2s-2.5-.533-2.5-2q0-2-2-2t-2 2-2 2-2-2-2-2-2 2c0 1.467-.667 2-2.5 2s-2.5-.533-2.5-2q0-2-2-2t-2 2-2 2-2-2-2-2-2 2c0 1.467-.667 2-2.5 2s-2.5-.533-2.5-2q0-2-2-2t-2 2-2 2-2-2c0-1.467-.667-2-2.5-2s-2.5.533-2.5 2 .667 2 2.5 2 2.5.533 2.5 2c0 2.725-3.998 2.725-4.71 0-.29-1.107-1.364-2-2.407-2-1.216 0-1.883-.708-1.883-2q0-2-2-2t-2 2-2 2-2-2c0-1.467-.667-2-2.5-2s-2.5.533-2.5 2c0 1.304-.667 2-1.917 2-1.054 0-2.099.548-2.323 1.219-.315.946-1.311.919-4.458-.119-3.192-1.054-3.948-1.737-3.561-3.219.389-1.487-.055-1.881-2.124-1.881-1.66 0-2.617.549-2.617 1.5 0 .825-.689 1.5-1.531 1.5-.843 0-1.791-.675-2.107-1.5-.637-1.66-4.362-2.087-4.362-.5 0 1.143-3.306 1.36-4.378.289-.997-.998-21.622-1.094-21.622-.101 0 .447-.9.812-2 .812s-2-.45-2-1-.9-1-2-1c-1.111 0-2 .667-2 1.5 0 .933-.944 1.5-2.5 1.5s-2.5-.567-2.5-1.5c0-2.476-3.816-1.795-4.204.75-.189 1.238-.919 2.129-1.623 1.982s-1.963.415-2.798 1.25c-1.977 1.977-4.493 1.989-3.737.018.421-1.097-.125-1.5-2.031-1.5-1.94 0-2.607-.511-2.607-2q0-2-2-2t-2 2-2 2-2-2-2-2-2 2c0 1.467-.667 2-2.5 2s-2.5-.533-2.5-2q0-2-2-2t-2 2-2 2-2-2c0-1.467-.667-2-2.5-2s-2.5.533-2.5 2 .667 2 2.5 2 2.5.533 2.5 2c0 1.363-.667 2-2.094 2-1.252 0-2.303-.803-2.616-2-.29-1.107-1.364-2-2.407-2C51.667 24 51 23.292 51 22q0-2-2-2t-2 2-2 2-2-2c0-1.467-.667-2-2.5-2s-2.5.533-2.5 2q0 2-2 2t-2-2-2-2-2 2-2 2-2-2c0-1.467-.667-2-2.5-2s-2.5.533-2.5 2q0 2-2 2t-2-2-2-2-2 2c0 1.292-.667 2-1.883 2-1.043 0-2.117.893-2.407 2-.313 1.197-1.364 2-2.616 2C4.667 28 4 27.363 4 26c0-1.467.667-2 2.5-2S9 23.467 9 22s-.667-2-2.5-2-2.5.533-2.5 2m86 0q0 2 2 2t2-2-2-2-2 2m68 0q0 2 2 2t2-2-2-2-2 2M.158 26c0 1.375.227 1.938.504 1.25.278-.687.278-1.812 0-2.5-.277-.687-.504-.125-.504 1.25M13 26q0 2-2 2c-1.467 0-2 .667-2 2.5 0 2-.5 2.5-2.5 2.5-1.833 0-2.5.533-2.5 2s.667 2 2.5 2S9 36.467 9 35q0-2 2-2t2 2 2 2 2 2 2 2 2-2c0-1.467.667-2 2.5-2s2.5.533 2.5 2q0 2 2 2t2-2 2-2 2 2 2 2 2-2c0-1.467.667-2 2.5-2s2.5.533 2.5 2q0 2 2 2t2-2 2-2c1.309 0 2 .667 2 1.93 0 1.241.804 2.045 2.25 2.25 1.237.176 2.257.77 2.265 1.32.036 2.363 1.633 3.622 3.074 2.426C60.836 43.061 60.265 41 57.5 41c-1.833 0-2.5-.533-2.5-2s.667-2 2.5-2c1.786 0 2.5.54 2.5 1.893 0 1.899 2.283 3.491 3.402 2.371.329-.328.598-1.475.598-2.547 0-1.546.523-1.85 2.524-1.468 1.388.266 2.808.024 3.154-.538.362-.584.138-.715-.523-.306-.73.451-1.155-.044-1.155-1.346C68 33.667 67.352 33 66 33c-1.467 0-2-.667-2-2.5s.533-2.5 2-2.5 2 .667 2 2.5c0 2.031.492 2.5 2.622 2.5 2.335 0 2.472.185 1.25 1.683-.854 1.047.61.575 3.877-1.25 2.887-1.613 5.249-3.544 5.25-4.291.001-.928.749-1.171 2.359-.767 2.08.522 2.302.299 1.884-1.892C84.65 23.389 81 22.973 81 26q0 2-2 2t-2-2-2-2-2 2c0 1.356.667 2 2.07 2 1.574 0 1.993.539 1.75 2.25-.343 2.415-4.216 3.286-4.445 1-.069-.687-.181-1.7-.25-2.25S71.1 28 70 28q-2 0-2-2t-2-2-2 2-2 2c-1.467 0-2 .667-2 2.5 0 2-.5 2.5-2.5 2.5s-2.5-.5-2.5-2.5c0-1.833-.533-2.5-2-2.5q-2 0-2-2t-2-2-2 2-2 2-2-2c0-1.467-.667-2-2.5-2s-2.5.533-2.5 2q0 2-2 2t-2-2-2-2-2 2-2 2-2-2c0-1.467-.667-2-2.5-2s-2.5.533-2.5 2q0 2-2 2t-2-2-2-2-2 2m153-.059c0 2.356 1.275 3.274 3.41 2.455 2.669-1.024 1.971-4.396-.91-4.396-1.808 0-2.5.537-2.5 1.941m9 .059c0 1.313-.667 2-1.941 2-2.927 0-3.502 1.899-.873 2.884 1.868.7 2.376.506 2.634-1.009.183-1.075 1.142-1.875 2.25-1.875 1.413 0 1.93.698 1.93 2.607 0 1.906-.403 2.452-1.5 2.031-2.239-.859-1.81.125.621 1.427 1.49.797 1.918.808 1.441.035-.411-.664.136-1.1 1.379-1.1 1.53 0 2.059-.643 2.059-2.5 0-1.833-.533-2.5-2-2.5q-2 0-2-2t-2-2-2 2m17 0q0 2-2 2c-1.467 0-2 .667-2 2.5 0 1.998-.5 2.5-2.494 2.5-1.81 0-2.42.48-2.226 1.75.284 1.865.835 2.25 3.22 2.25.833 0 1.5-.889 1.5-2q0-2 2-2t2 2c0 1.296-.667 2-1.893 2-2.623 0-3.457 2.742-1.201 3.95 2.122 1.135 3.094.471 3.094-2.117 0-1.166.727-1.833 2-1.833q2 0 2-2c0-1.467.667-2 2.5-2s2.5.533 2.5 2q0 2 2 2t2 2 2 2 2-2 2-2 2 2c0 1.467.667 2 2.5 2s2.5-.533 2.5-2q0-2 2-2t2 2 2 2 2-2 2-2 2 2c0 1.467.667 2 2.5 2s2.5-.533 2.5-2q0-2 2-2t2 2 2 2 2-2 2-2 2 2c0 1.467.667 2 2.5 2s2.5-.533 2.5-2-.667-2-2.5-2-2.5-.533-2.5-2 .667-2 2.5-2c2 0 2.5-.5 2.5-2.5 0-1.833-.533-2.5-2-2.5-1.1 0-2.056.45-2.125 1s-.181 1.563-.25 2.25-1.137 1.394-2.375 1.57c-1.832.26-2.25-.158-2.25-2.25 0-1.903.519-2.57 2-2.57q2 0 2-2t-2-2-2 2-2 2-2-2-2-2-2 2c0 1.467-.667 2-2.5 2s-2.5-.533-2.5-2q0-2-2-2t-2 2-2 2-2-2-2-2-2 2c0 1.467-.667 2-2.5 2s-2.5-.533-2.5-2q0-2-2-2t-2 2-2 2-2-2-2-2-2 2 2 2c1.481 0 2 .667 2 2.57 0 2.092-.418 2.51-2.25 2.25-1.238-.176-2.306-.882-2.375-1.57-.069-.687-.181-1.7-.25-2.25S199.1 28 198 28q-2 0-2-2t-2-2-2 2M13 30.5c0 1.833.533 2.5 2 2.5q2 0 2 2t2 2 2-2c0-1.467.667-2 2.5-2s2.5.533 2.5 2q0 2 2 2t2-2 2-2 2 2 2 2 2-2c0-1.467.667-2 2.5-2s2.5.533 2.5 2q0 2 2 2t2-2 2-2 2 2 2 2 2-2-2-2c-1.467 0-2-.667-2-2.5s-.533-2.5-2-2.5-2 .667-2 2.5-.533 2.5-2 2.5-2-.667-2-2.5c0-2-.5-2.5-2.5-2.5s-2.5.5-2.5 2.5c0 1.833-.533 2.5-2 2.5s-2-.667-2-2.5-.533-2.5-2-2.5-2 .667-2 2.5-.533 2.5-2 2.5-2-.667-2-2.5c0-2-.5-2.5-2.5-2.5s-2.5.5-2.5 2.5c0 1.833-.533 2.5-2 2.5s-2-.667-2-2.5-.533-2.5-2-2.5-2 .667-2 2.5m179 0c0 1.833.533 2.5 2 2.5s2-.667 2-2.5-.533-2.5-2-2.5-2 .667-2 2.5m17 0c0 1.833-.533 2.5-2 2.5q-2 0-2 2t2 2 2-2 2-2 2 2c0 1.467.667 2 2.5 2s2.5-.533 2.5-2q0-2 2-2t2 2 2 2 2-2 2-2 2 2c0 1.467.667 2 2.5 2s2.5-.533 2.5-2q0-2 2-2t2 2 2 2 2-2-2-2c-1.467 0-2-.667-2-2.5s-.533-2.5-2-2.5-2 .667-2 2.5c0 2-.5 2.5-2.5 2.5s-2.5-.5-2.5-2.5c0-1.833-.533-2.5-2-2.5s-2 .667-2 2.5-.533 2.5-2 2.5-2-.667-2-2.5-.533-2.5-2-2.5-2 .667-2 2.5c0 2-.5 2.5-2.5 2.5s-2.5-.5-2.5-2.5c0-1.833-.533-2.5-2-2.5s-2 .667-2 2.5M.158 35c0 1.375.227 1.938.504 1.25.278-.687.278-1.812 0-2.5-.277-.687-.504-.125-.504 1.25M60 35q0 2 2 2t2-2-2-2-2 2M.158 43c0 1.375.227 1.938.504 1.25.278-.687.278-1.812 0-2.5-.277-.687-.504-.125-.504 1.25M95 45c-1.925.405-2.937.796-2.25.868C94.928 46.098 94.22 50 92 50c-1.79 0-2.468-1.039-2.118-3.25.143-.907-1.162-.964-3.3-.143-.87.334-1.582 1.284-1.582 2.111 0 1.168-.84 1.384-3.75.965-2.062-.296-2.915-.304-1.894-.017 1.468.412 1.744 1.182 1.318 3.678-.296 1.736-.307 2.594-.023 1.906C81.516 53.154 85 53.755 85 56c0 1.326-.667 2-1.979 2-1.747 0-1.845.292-.839 2.5.626 1.375 1.464 2.5 1.862 2.5.397 0 .946.852 1.218 1.894.296 1.132 1.777 2.175 3.681 2.593 2.987.657 3.873 1.755 5.438 6.746.71 2.266 3.619 1.189 3.619-1.34 0-1.226.704-1.893 2-1.893q2 0 2 2c0 1.292-.667 2-1.883 2s-2.053.887-2.362 2.5c-.4 2.096-.096 2.5 1.884 2.5 1.66 0 2.361.569 2.361 1.917 0 1.054-.436 2.066-.968 2.25-.616.212-.622.878-.015 1.833.812 1.279.955 1.243.968-.25.01-1.196.807-1.75 2.515-1.75 1.833 0 2.5.533 2.5 2 0 1.474-.667 2-2.535 2-2.225 0-2.405.244-1.465 2 .589 1.1 1.758 2 2.598 2 1.01 0 1.422.762 1.215 2.25-.235 1.691.246 2.329 1.937 2.57 2.401.34 3.198 3.697 1.049 4.414-.934.311-.934.564 0 1.142.661.408 1.201.265 1.201-.317s.9-1.059 2-1.059q2 0 2 2c0 1.111-.667 2-1.5 2-.825 0-1.5.248-1.5.552 0 1.486 4.645 8.434 5.643 8.44 2.435.017 2.203 3.074-.428 5.64l-2.715 2.648 3.154-2.14c1.735-1.177 3.873-2.14 4.75-2.14 2.354 0 1.956 3.634-.594 5.42-2.123 1.488-1.853 3.08.523 3.08.642 0 1.311 1.013 1.487 2.25.205 1.446 1.009 2.25 2.25 2.25 1.263 0 1.93.691 1.93 2 0 2.066-3.511 2.935-4.167 1.032-.212-.616-.878-.622-1.833-.015-1.279.812-1.243.955.25.968 1.078.009 1.75.783 1.75 2.015 0 1.467-.667 2-2.5 2-1.635 0-2.5-.559-2.5-1.615 0-1.487-.196-1.487-2.465 0-3.348 2.194-5.535 2.042-5.535-.385q0-2-2-2c-1.1 0-2-.666-2-1.481 0-.814-1.166-1.774-2.591-2.131-2.003-.503-2.496-1.15-2.172-2.848.352-1.842.043-2.125-1.908-1.752-1.943.371-2.329.025-2.329-2.088 0-1.393.563-2.74 1.25-2.992 1-.366 1-.723 0-1.783-1.029-1.091-1.25-1.025-1.25.375 0 1.277-.933 1.729-3.75 1.816-2.062.064-2.963.322-2 .573 2.491.651 2.279 4.311-.25 4.311q-2 0-2-2c0-2.673-1.228-2.52-4.959.619-3.769 3.172-6.84 8.615-5.173 9.17 1.688.563 1.369 4.211-.368 4.211-2.026 0-1.912 3.67.15 4.824 1.007.564 1.45 1.687 1.136 2.885-.43 1.644-.105 1.883 2.005 1.48 2.373-.453 2.484-.286 1.931 2.915-.323 1.868-.355 2.834-.071 2.146.284-.687 1.603-1.25 2.932-1.25 1.75 0 2.417-.552 2.417-2q0-2 2-2t2 2c0 1.292-.667 2-1.883 2-1.043 0-2.117.893-2.407 2-.416 1.591-.03 2 1.884 2 1.739 0 2.406-.554 2.406-2q0-2 2-2t2 2c0 1.446.667 2 2.406 2 1.914 0 2.3-.409 1.884-2-.29-1.107-1.364-2-2.407-2-1.216 0-1.883-.708-1.883-2q0-2 2-2t2 2c0 1.467.667 2 2.5 2 1.577 0 2.5.565 2.5 1.53 0 1.248.736 1.11 3.992-.75 2.196-1.254 3.996-2.842 4-3.53s1.091-1.25 2.414-1.25c1.973 0 2.305-.389 1.843-2.156-.52-1.988-.279-2.111 3.075-1.566 2.002.325 3.896.175 4.21-.332.313-.508-.128-.655-.982-.328-1.158.445-1.552-.066-1.552-2.011 0-1.94.511-2.607 2-2.607 1.345 0 2 .667 2 2.035 0 1.725.305 1.872 2 .965 1.1-.589 2-1.505 2-2.035s-.9-.965-2-.965q-2 0-2-2t2-2c1.313 0 2 .667 2 1.941 0 1.068.359 2.163.798 2.434 1.145.708 3.699-1.07 3.719-2.589.009-.707 1.022-1.25 2.25-1.207 1.694.061 2.233-.482 2.233-2.25 0-1.662.572-2.329 2-2.329 1.1 0 2 .498 2 1.107s.62.869 1.378.578 1.91-.001 2.559.643c.906.899 1.026.764.515-.578-.529-1.39-.129-1.75 1.941-1.75 1.94 0 2.607.511 2.607 2 0 1.323-.667 2-1.969 2-1.159 0-1.775.514-1.498 1.25.259.688-.881 2.017-2.531 2.953-1.651.937-3.002 2.448-3.002 3.357 0 1.001-.549 1.443-1.39 1.121-.969-.372-1.347.2-1.25 1.892.077 1.334.703 2.426 1.39 2.426.688.001 1.25.901 1.25 2.001q0 2-2 2c-1.111 0-2-.667-2-1.5 0-.825-.248-1.5-.552-1.5-1.572 0-8.434 4.674-8.44 5.75-.007 1.136-1.298 1.678-3.258 1.368-.412-.065-.75 1.007-.75 2.382 0 1.797-.539 2.5-1.917 2.5-1.054 0-2.096-.538-2.315-1.196-.272-.815-1.651-.434-4.333 1.197-2.164 1.317-4.16 2.675-4.435 3.019s-1.287.916-2.25 1.272c-.963.355-1.75 1.334-1.75 2.177 0 .842-.675 1.531-1.5 1.531-1.613 0-1.853.916-.895 3.412.781 2.036 2.395 1.044 2.395-1.471 0-1.274.687-1.941 2-1.941q2 0 2 2t-2 2c-1.305 0-2 .667-2 1.918 0 1.055-.151 2.518-.336 3.25s-.147.994.083.582c.941-1.681 4.253-.708 4.253 1.25q0 2-2 2t-2 2 2 2 2-2 2-2 2 2c0 1.467.667 2 2.5 2s2.5-.533 2.5-2q0-2 2-2t2 2 2 2 2-2c0-1.467.667-2 2.5-2s2.5.533 2.5 2q0 2 2 2t2-2 2-2 2 2 2 2 2-2c0-1.467.667-2 2.5-2 1.802 0 2.5.538 2.5 1.927 0 1.059.765 2.074 1.701 2.254 1.354.261 1.734 1.553 1.86 6.325l.159 5.997-45.096-.001c-42.153-.002-45.119-.116-45.434-1.752-.185-.963-.979-1.75-1.763-1.75-.785 0-1.427-.9-1.427-2 0-1.111.667-2 1.5-2 .933 0 1.5-.944 1.5-2.5s-.567-2.5-1.5-2.5c-.833 0-1.5-.889-1.5-2q0-2 2-2t2 2c0 1.467.667 2 2.5 2s2.5-.533 2.5-2q0-2 2-2t2 2 2 2c1.163 0 2-.667 2-1.594 0-.876-.9-1.829-2-2.116-2.495-.653-2.702-4.29-.243-4.29 1.166 0 2.164-1.308 2.972-3.896 1.212-3.883 1.2-3.912-3.388-8.5-2.532-2.532-4.77-4.604-4.973-4.604-.202 0-.368.9-.368 2 0 1.467-.667 2-2.5 2s-2.5-.533-2.5-2c0-1.273.667-2 1.833-2 1.009 0 2.118-.284 2.465-.631.989-.989-1.203-4.369-2.833-4.369-.806 0-1.465-.9-1.465-2q0-2-2-2c-2.131 0-2.91-3.53-.925-4.192 1.841-.613-1.246-8.808-3.318-8.808-1.09 0-1.757-.759-1.757-2q0-2 2-2t2-2-2-2-2-2 2-2c1.467 0 2-.667 2-2.5s-.533-2.5-2-2.5q-2 0-2-2c0-2.529 3.642-2.738 4.355-.25.276.963.258.063-.038-2-.397-2.76-.18-3.751.822-3.753.748-.002 2.347-2.027 3.551-4.5 1.738-3.568 1.893-4.497.75-4.497-.792 0-1.44-.9-1.44-2 0-2.207 3.541-2.876 4.234-.799.311.934.564.934 1.142 0 .408-.661.308-1.201-.223-1.201s-.73-.9-.443-2c.29-1.107 1.364-2 2.407-2C76.459 97 77 96.282 77 94.5c0-1.55.567-2.5 1.492-2.5C80.438 92 85 95.982 85 97.68c0 .789 1.107 1.294 2.75 1.257 2.656-.062 2.672-.095.485-.974-1.245-.5-2.696-2.046-3.225-3.436S83.363 92 82.525 92C81.667 92 81 91.126 81 90q0-2-2-2t-2-2c0-1.1.436-2 .969-2s.734-.611.447-1.357c-.321-.837.638-1.837 2.499-2.608 1.66-.687 3.584-1.932 4.276-2.765.804-.969-.435-.66-3.44.858-2.865 1.447-4.707 3.054-4.724 4.122-.038 2.448-3.666 2.238-4.317-.25-.313-1.197-1.364-2-2.616-2C68.527 80 68 79.371 68 77.5s.527-2.5 2.094-2.5c1.252 0 2.303-.803 2.616-2 .288-1.1.932-2 1.432-2 1.279 0-1.515-5.123-4.04-7.407C68.946 62.546 68 60.912 68 59.962c0-1.948-4.66-3.321-5.678-1.673-.362.584-.138.715.523.306.758-.468 1.155.166 1.155 1.846 0 1.892.521 2.559 2 2.559q2 0 2 2t-2 2-2-2c0-1.37-.667-2-2.117-2-1.625 0-1.995-.465-1.593-2.002.517-1.978.492-1.979-2.133-.108-1.461 1.042-3.514 2.843-4.562 4.002-1.682 1.861-1.711 2.108-.25 2.108.988 0 1.655.806 1.655 2 0 2.413-3.686 2.804-4.177.443-.236-1.137-1.377-.476-4.223 2.445-3.095 3.177-3.456 3.887-1.75 3.441 1.795-.47 2.15-.131 2.15 2.054C47 79.3 46.485 80 45.073 80c-1.059 0-2.072-.745-2.25-1.656-.301-1.541-.418-1.541-1.695 0-1.181 1.425-1.146 1.656.25 1.656.955 0 1.622.822 1.622 2 0 1.479-.667 2-2.559 2-1.68 0-2.314-.397-1.846-1.155.409-.661.278-.885-.306-.523-.562.346-.804 1.766-.538 3.154.355 1.858 1.111 2.524 2.866 2.524 1.716 0 2.383.559 2.383 2 0 1.467-.667 2-2.5 2s-2.5-.533-2.5-2q0-2-2-2c-1.29 0-2 .667-2 1.878 0 1.032-.675 2.437-1.5 3.122S31 94.865 31 95.622c0 .758.675 1.378 1.5 1.378.833 0 1.5.889 1.5 2 0 2.25-3.451 2.837-4.405.75-.314-.687-.329.155-.032 1.873.391 2.258.11 3.288-1.011 3.719-1.824.7-2.125 4.775-.326 4.408.675-.138 1.381.763 1.57 2 .219 1.438 1.04 2.25 2.274 2.25 1.263 0 1.93.691 1.93 2q0 2-2 2c-1.292 0-2-.667-2-1.883 0-1.036-.864-2.11-1.92-2.386-2.555-.668-2.949 1.244-3.012 14.628-.061 12.913.469 15.641 3.04 15.641 1.225 0 1.892.705 1.892 2 0 1.111-.667 2-1.5 2s-1.5.889-1.5 2c0 1.179.667 2 1.625 2 1.281 0 1.507.688 1.068 3.25-.307 1.787-.326 2.688-.042 2 .284-.687 1.378-1.25 2.432-1.25 1.401 0 1.917.705 1.917 2.617 0 2.091-.387 2.515-1.927 2.112-1.707-.446-1.803-.23-.84 1.884.599 1.313 1.466 2.387 1.928 2.387s.839.9.839 2c0 1.373.667 2 2.125 2 1.822 0 2.04.423 1.533 2.961-.326 1.629-.162 3.227.363 3.552.526.325.71-.05.41-.833-.411-1.071.089-1.303 2.011-.936 2.874.55 3.689 4.256.936 4.256-1.396 0-1.431.231-.25 1.656 1.277 1.541 1.394 1.541 1.695 0 .475-2.433 4.177-2.128 4.177.344 0 1.399-.676 2.009-2.25 2.029-1.841.024-.708 1.524 6.233 8.25 6.408 6.21 8.567 7.793 8.824 6.471.473-2.439 4.193-2.291 4.193.167 0 1.054-.54 2.096-1.201 2.317-.934.311-.934.564 0 1.142.661.408 1.201.265 1.201-.317S64.9 199 66 199c1.467 0 2 .667 2 2.5 0 1.375.255 2.5.566 2.5 1.605 0 4.434-2.255 4.434-3.535 0-.806.9-1.465 2-1.465q2 0 2 2c0 1.296-.667 2-1.893 2-3.408 0-3.126 2.621.467 4.334 4.704 2.243 9.426 1.262 9.426-1.959 0-1.867.535-2.375 2.5-2.375 2 0 2.5.5 2.5 2.5s-.5 2.5-2.5 2.5c-3.141 0-3.329 2.544-.25 3.37 3.377.905 3.607.801 3.04-1.37-.402-1.535-.031-2 1.593-2 1.591 0 2.117-.621 2.117-2.5 0-1.833.533-2.5 2-2.5s2 .667 2 2.5-.533 2.5-2 2.5c-1.304 0-2 .667-2 1.917 0 1.054-.563 2.148-1.25 2.432s.158.276 1.879-.017c1.773-.303 3.423-.057 3.809.567.374.606 1.58 1.101 2.68 1.101s1.722-.45 1.382-1-1.491-1-2.559-1c-1.274 0-1.941-.687-1.941-2q0-2 2-2t2 2c0 1.467.667 2 2.5 2s2.5-.533 2.5-2q0-2 2-2t2 2c0 1.313-.667 2-1.941 2-1.068 0-2.219.45-2.559 1-.351.567.49 1 1.941 1 1.407 0 2.559-.45 2.559-1s.9-1 2-1 2 .45 2 1 .9 1 2 1 2-.49 2-1.088c0-.697 1.526-.895 4.25-.552 2.338.294 3.463.301 2.5.014-2.487-.74-2.279-4.374.25-4.374q2 0 2 2t2 2 2-2c0-1.296.667-2 1.893-2 2.018 0 3.093-1.696 2.376-3.75-.239-.687-1.298-1.25-2.352-1.25-1.25 0-1.917-.696-1.917-2 0-1.467.667-2 2.5-2s2.5.533 2.5 2q0 2 2 2c1.467 0 2 .667 2 2.5 0 1.808-.537 2.5-1.941 2.5-1.068 0-2.219.45-2.559 1-.837 1.354-.212 1.269 4.48-.609 2.709-1.084 4.02-2.225 4.02-3.5 0-2.113 3.566-2.694 4.234-.69.311.934.564.934 1.142 0 .408-.661.265-1.201-.317-1.201s-1.059-.9-1.059-2c0-2.43 4.666-2.874 5.177-.492.237 1.11 1.844.312 6.073-3.014 6.055-4.763 7.055-6.494 3.75-6.494-1.467 0-2-.667-2-2.5 0-3.323 3.712-3.545 4.18-.25.176 1.238.995 2.25 1.82 2.25s1.944-1.012 2.487-2.25 1.443-2.269 2-2.293c1.121-.047 8.132-8.799 9.128-11.395.412-1.076.164-1.543-.719-1.353-.751.162-1.501-.706-1.692-1.959-.262-1.719.145-2.25 1.726-2.25 1.403 0 2.07-.644 2.07-2q0-2-2-2t-2-2 2-2c1.308 0 2 .667 2 1.927 0 1.059.787 2.093 1.75 2.297 1.254.265 2.368-.918 3.932-4.177 1.776-3.702 1.916-4.607.75-4.87-.788-.178-1.432-1.191-1.432-2.25 0-1.389-.698-1.927-2.5-1.927-1.833 0-2.5-.533-2.5-2s.667-2 2.5-2c1.782 0 2.5.541 2.5 1.883 0 1.036.85 2.106 1.889 2.378 1.488.389 2.001-.17 2.415-2.634.289-1.72.866-3.988 1.281-5.041.529-1.342.405-1.698-.415-1.191-.777.48-1.17-.137-1.17-1.836 0-1.892-.521-2.559-2-2.559q-2 0-2-2t2-2c1.313 0 2 .667 2 1.941 0 2.515 1.614 3.507 2.395 1.471.958-2.496.718-3.412-.895-3.412-.833 0-1.5-.889-1.5-2s.667-2 1.5-2c.928 0 1.5-.941 1.5-2.469 0-1.783-.416-2.308-1.5-1.893-.825.317-1.5 1.428-1.5 2.469 0 1.226-.704 1.893-2 1.893q-2 0-2-2t2-2c1.467 0 2-.667 2-2.5s-.533-2.5-2-2.5q-2 0-2-2t2-2c1.296 0 2 .667 2 1.893 0 1.041.675 2.152 1.5 2.469.892.342 1.5.009 1.5-.822 0-.768-.675-2.072-1.5-2.897-1.681-1.681-1.989-4.302-.565-4.81.56-.2.478-2.034-.207-4.583-.804-2.996-1.67-4.25-2.935-4.25-2.045 0-2.522-3.59-.563-4.243 1.69-.564-1.862-8.424-3.807-8.424-1.379 0-1.531.247-1.798 2.917-.069.688-1.137 1.394-2.375 1.57-1.832.26-2.25-.158-2.25-2.25 0-1.903.519-2.57 2-2.57 1.352 0 2-.667 2-2.059 0-1.132.445-1.784.989-1.448.591.365.718-.093.316-1.141-.413-1.076-.826-1.289-1.072-.551C182.541 88.876 179 88.207 179 86c0-1.166.667-2 1.598-2 1.391 0 1.347-.397-.337-3.056-3.177-5.019-12.431-14.957-13.379-14.371-.485.3-.882 1.418-.882 2.486 0 1.274-.687 1.941-2 1.941q-2 0-2-2t2-2c1.1 0 1.986-.562 1.97-1.25-.041-1.704-11.334-10.157-11.781-8.818-.195.587-1.443 1.068-2.772 1.068-1.911 0-2.417.523-2.417 2.5 0 1.833-.533 2.5-2 2.5s-2-.667-2-2.5c0-1.782.541-2.5 1.883-2.5 1.178 0 2.051-.872 2.329-2.329.38-1.985.102-2.263-1.883-1.883-1.655.316-2.329-.019-2.329-1.158 0-.897-1.595-2.27-3.622-3.117-4.208-1.758-5.748-1.92-4.878-.513.34.55 1.491 1 2.559 1 1.274 0 1.941.687 1.941 2q0 2-2 2t-2-2c0-1.467-.667-2-2.5-2s-2.5.533-2.5 2q0 2-2 2t-2-2 2-2 2-2-2-2-2 2-2 2c-2.529 0-2.741-3.66-.25-4.311.963-.251.314-.509-1.441-.573-3.01-.109-4.759 1.125-4.794 3.384-.008.55-1.028 1.144-2.265 1.32-1.711.243-2.25-.176-2.25-1.75 0-1.403-.644-2.07-2-2.07q-2 0-2 2t-2 2-2-2c0-1.467-.667-2-2.5-2s-2.5.533-2.5 2c0 1.356-.667 2-2.07 2-3.066 0-2.185-4.209 1.07-5.109l2.5-.692-2.5.032c-1.375.018-4.075.364-6 .769m12.75-.338c.688.278 1.813.278 2.5 0 .688-.277.125-.504-1.25-.504s-1.937.227-1.25.504m8.519.031c.973.254 2.323.237 3-.037s-.119-.481-1.769-.461-2.204.244-1.231.498M47 48q0 2 2 2t2-2-2-2-2 2m153.429-.25c.139.962 1.224 1.894 2.412 2.07 1.619.239 2.159-.198 2.159-1.75 0-1.521-.64-2.07-2.412-2.07-1.726 0-2.339.497-2.159 1.75M.158 52c0 1.375.227 1.938.504 1.25.278-.687.278-1.812 0-2.5-.277-.687-.504-.125-.504 1.25M4 52c0 1.467.667 2 2.5 2s2.5.533 2.5 2-.667 2-2.5 2c-2 0-2.5.5-2.5 2.5 0 1.833.533 2.5 2 2.5 1.1 0 2.056-.45 2.125-1s.181-1.562.25-2.25 1.137-1.394 2.375-1.57c1.832-.26 2.25.158 2.25 2.25 0 1.903-.519 2.57-2 2.57q-2 0-2 2c0 1.467-.667 2-2.5 2S4 67.533 4 69s.667 2 2.5 2 2.5.533 2.5 2q0 2 2 2c1.467 0 2 .667 2 2.5s-.533 2.5-2 2.5q-2 0-2 2c0 1.467-.667 2-2.5 2S4 84.533 4 86s.667 2 2.5 2 2.5.533 2.5 2q0 2 2 2c1.481 0 2 .667 2 2.57 0 2.092-.418 2.51-2.25 2.25-1.238-.176-2.306-.882-2.375-1.57-.069-.687-.181-1.7-.25-2.25S7.1 92 6 92c-1.467 0-2 .667-2 2.5 0 2 .5 2.5 2.5 2.5 1.833 0 2.5.533 2.5 2s-.667 2-2.5 2-2.5.533-2.5 2 .667 2 2.5 2 2.5-.533 2.5-2q0-2 2-2t2 2 2 2 2-2c0-2.25 3.451-2.837 4.405-.75.314.688.329-.155.032-1.873-.373-2.156-.103-3.291.873-3.666.777-.298 1.658-1.48 1.958-2.626.411-1.575.078-2.085-1.362-2.085C21.667 92 21 91.301 21 90c0-2.244 3.491-2.848 4.338-.75.277.688.54-.213.583-2C25.99 84.429 25.67 84 23.5 84c-1.833 0-2.5-.533-2.5-2s.667-2 2.5-2c1.808 0 2.5.537 2.5 1.941 0 3.644 1.537 2.897 4.161-2.024C32.086 76.306 32.413 75 31.391 75 30.626 75 30 74.048 30 72.883c0-1.676.484-2.024 2.329-1.671 1.985.38 2.263.102 1.883-1.883-.343-1.795.002-2.329 1.505-2.329 1.072 0 2.219-.269 2.547-.598 1.12-1.119-.472-3.402-2.371-3.402C34.54 63 34 62.286 34 60.5c0-1.833.533-2.5 2-2.5s2 .667 2 2.5c0 2.663 1.816 3.284 3.8 1.3s1.363-3.8-1.3-3.8c-1.833 0-2.5-.533-2.5-2q0-2-2-2t-2-2-2-2-2 2-2 2-2-2c0-1.467-.667-2-2.5-2s-2.5.533-2.5 2q0 2-2 2t-2-2-2-2-2 2-2 2-2-2c0-1.467-.667-2-2.5-2S4 50.533 4 52m70.219-.663c-1.255.697-1.93 1.624-1.5 2.06s.106.697-.719.58c-3.003-.428-4 .062-4 1.964 0 1.068.359 2.163.798 2.434 1.146.708 3.7-1.071 3.715-2.589.008-.716 1.146-1.275 2.569-1.261 2.124.021 2.481-.358 2.12-2.25-.239-1.251-.495-2.259-.569-2.24-.073.02-1.16.606-2.414 1.302M85 52c0 1.467.667 2 2.5 2s2.5.533 2.5 2-.667 2-2.5 2c-2 0-2.5.5-2.5 2.5s.5 2.5 2.5 2.5c1.833 0 2.5.533 2.5 2q0 2 2 2t2 2 2 2 2-2 2-2 2 2c0 1.467.667 2 2.5 2s2.5.533 2.5 2-.667 2-2.5 2c-2 0-2.5.5-2.5 2.5s.5 2.5 2.5 2.5c1.833 0 2.5.533 2.5 2q0 2 2 2t2 2-2 2-2 2 2 2c1.467 0 2 .667 2 2.5s.533 2.5 2 2.5q2 0 2 2t2 2 2 2c0 1.467.667 2 2.5 2s2.5.533 2.5 2q0 2 2 2t2-2 2-2 2 2c0 1.467.667 2 2.5 2s2.5-.533 2.5-2q0-2 2-2t2 2 2 2 2-2 2-2 2 2c0 1.467.667 2 2.5 2s2.5-.533 2.5-2q0-2 2-2t2 2 2 2 2-2 2-2 2 2c0 1.467.667 2 2.5 2s2.5-.533 2.5-2q0-2 2-2t2 2 2 2 2-2 2-2 2 2c0 1.467.667 2 2.5 2s2.5-.533 2.5-2-.667-2-2.5-2-2.5-.533-2.5-2 .667-2 2.5-2 2.5-.533 2.5-2-.667-2-2.5-2-2.5.533-2.5 2q0 2-2 2t-2-2-2-2c-1.467 0-2-.667-2-2.5s.533-2.5 2-2.5q2 0 2-2t-2-2-2-2 2-2 2-2-2-2c-1.467 0-2-.667-2-2.5s-.533-2.5-2-2.5q-2 0-2-2c0-1.467-.667-2-2.5-2s-2.5.533-2.5 2q0 2-2 2t-2-2-2-2-2-2 2-2c1.446 0 2-.667 2-2.406 0-1.914-.409-2.3-2-1.884-1.107.29-2 1.364-2 2.407 0 1.216-.708 1.883-2 1.883q-2 0-2-2c0-1.356.667-2 2.07-2 1.571 0 1.992-.539 1.75-2.24-.475-3.324-3.82-3.616-3.82-.333 0 2.078-.481 2.573-2.5 2.573-1.833 0-2.5.533-2.5 2q0 2-2 2t-2-2-2-2c-1.467 0-2-.667-2-2.5s.533-2.5 2-2.5q2 0 2-2t-2-2c-1.309 0-2 .667-2 1.93 0 1.241-.804 2.045-2.25 2.25-1.238.176-2.306.883-2.375 1.57s-.181 1.7-.25 2.25-1.025 1-2.125 1c-1.467 0-2-.667-2-2.5 0-2 .5-2.5 2.5-2.5 1.833 0 2.5-.533 2.5-2s-.667-2-2.5-2-2.5.533-2.5 2q0 2-2 2t-2-2-2-2-2-2c0-1.467-.667-2-2.5-2s-2.5.533-2.5 2q0 2-2 2t-2-2-2-2-2 2-2 2-2-2c0-1.467-.667-2-2.5-2s-2.5.533-2.5 2q0 2-2 2t-2-2-2-2-2 2-2 2-2-2c0-1.467-.667-2-2.5-2s-2.5.533-2.5 2m133 0q0 2 2 2t2 2 2 2c1.467 0 2 .667 2 2.5s-.533 2.5-2 2.5q-2 0-2 2c0 1.296-.667 2-1.893 2-1.912 0-3.539 2.492-2.609 3.996.919 1.488 4.502-.193 4.502-2.113 0-1.216.708-1.883 2-1.883q2 0 2 2t-2 2c-1.1 0-2 .638-2 1.418s-.151 2.018-.336 2.75-.147.994.083.582c.231-.412 1.282-.75 2.336-.75 1.25 0 1.917-.696 1.917-2q0-2 2-2t2 2-2 2c-1.467 0-2 .667-2 2.5 0 2.762-.906 3.146-2.943 1.25-.739-.687-.419.55.712 2.75 1.13 2.2 2.302 4.78 2.605 5.733.719 2.264 3.626 1.19 3.626-1.34 0-1.353.714-1.893 2.5-1.893 1.833 0 2.5.533 2.5 2s-.667 2-2.5 2-2.5.533-2.5 2c0 1.1-.409 2-.908 2s-.208 2.19.648 4.868c1.248 3.901 1.925 4.771 3.409 4.383 1.018-.266 1.851-1.332 1.851-2.368 0-1.216.708-1.883 2-1.883q2 0 2 2t-2 2-2 2c0 1.111-.667 2-1.5 2-1.613 0-1.853.916-.895 3.412.781 2.036 2.395 1.044 2.395-1.471 0-1.274.687-1.941 2-1.941q2 0 2-2t2-2 2-2 2-2 2 2c0 1.467.667 2 2.5 2s2.5-.533 2.5-2-.667-2-2.5-2c-2 0-2.5-.5-2.5-2.5 0-1.833-.533-2.5-2-2.5q-2 0-2-2c0-1.292.667-2 1.883-2 1.043 0 2.117.893 2.407 2 .313 1.197 1.364 2 2.616 2 1.427 0 2.094-.637 2.094-2 0-1.467-.667-2-2.5-2s-2.5-.533-2.5-2 .667-2 2.5-2 2.5-.533 2.5-2c0-1.363-.667-2-2.094-2-1.252 0-2.303.803-2.616 2-.29 1.107-1.364 2-2.407 2-1.216 0-1.883-.708-1.883-2q0-2 2-2c1.467 0 2-.667 2-2.5s-.533-2.5-2-2.5q-2 0-2-2c0-1.292.667-2 1.883-2 1.043 0 2.117.893 2.407 2 .313 1.197 1.364 2 2.616 2 1.427 0 2.094-.637 2.094-2 0-1.467-.667-2-2.5-2s-2.5-.533-2.5-2 .667-2 2.5-2 2.5-.533 2.5-2c0-1.363-.667-2-2.094-2-1.252 0-2.303.803-2.616 2-.29 1.107-1.364 2-2.407 2-1.216 0-1.883-.708-1.883-2q0-2 2-2c1.467 0 2-.667 2-2.5 0-2 .5-2.5 2.5-2.5 1.833 0 2.5-.533 2.5-2s-.667-2-2.5-2-2.5.533-2.5 2q0 2-2 2t-2-2-2-2-2-2-2-2-2 2c0 1.467-.667 2-2.5 2s-2.5-.533-2.5-2q0-2-2-2t-2 2-2 2-2-2-2-2-2 2M13 56q0 2 2 2c1.467 0 2 .667 2 2.5s-.533 2.5-2 2.5q-2 0-2 2t-2 2-2 2 2 2 2 2 2 2c1.467 0 2 .667 2 2.5s-.533 2.5-2 2.5q-2 0-2 2t-2 2-2 2 2 2 2 2 2 2c1.467 0 2 .667 2 2.5s-.533 2.5-2 2.5q-2 0-2 2t2 2 2-2 2-2c1.467 0 2-.667 2-2.5s-.533-2.5-2-2.5q-2 0-2-2t2-2 2-2-2-2-2-2 2-2c1.467 0 2-.667 2-2.5 0-2 .5-2.5 2.5-2.5 2.019 0 2.5.495 2.5 2.573 0 3.283 3.345 2.991 3.82-.333.242-1.701-.179-2.24-1.75-2.24-1.403 0-2.07-.644-2.07-2q0-2 2-2t2-2 2-2 2-2-2-2c-1.467 0-2-.667-2-2.5s.533-2.5 2-2.5q2 0 2-2t-2-2-2 2-2 2-2-2c0-1.467-.667-2-2.5-2s-2.5.533-2.5 2q0 2-2 2t-2-2-2-2-2 2m81 0q0 2-2 2c-1.467 0-2 .667-2 2.5s.533 2.5 2 2.5q2 0 2 2t2 2 2-2 2-2 2 2c0 1.467.667 2 2.5 2s2.5.533 2.5 2q0 2 2 2t2 2-2 2c-1.467 0-2 .667-2 2.5s.533 2.5 2 2.5q2 0 2 2t2 2 2 2-2 2-2 2 2 2c1.467 0 2 .667 2 2.5s.533 2.5 2 2.5q2 0 2 2c0 1.467.667 2 2.5 2s2.5.533 2.5 2q0 2 2 2t2-2 2-2 2 2c0 1.467.667 2 2.5 2s2.5-.533 2.5-2q0-2 2-2t2 2 2 2 2-2 2-2 2 2c0 1.467.667 2 2.5 2s2.5-.533 2.5-2q0-2 2-2t2 2 2 2 2-2 2-2 2 2c0 1.467.667 2 2.5 2s2.5-.533 2.5-2q0-2 2-2t2 2 2 2 2-2-2-2-2-2-2-2c-1.467 0-2-.667-2-2.5s.533-2.5 2-2.5q2 0 2-2t-2-2-2-2 2-2 2-2-2-2c-1.467 0-2-.667-2-2.5 0-2-.5-2.5-2.5-2.5s-2.5.5-2.5 2.5c0 1.833-.533 2.5-2 2.5s-2-.667-2-2.5-.533-2.5-2-2.5q-2 0-2-2t-2-2-2-2c0-1.467-.667-2-2.5-2s-2.5.533-2.5 2q0 2-2 2t-2-2-2-2-2-2-2-2-2 2c0 1.467-.667 2-2.5 2s-2.5-.533-2.5-2q0-2-2-2c-1.467 0-2-.667-2-2.5s-.533-2.5-2-2.5q-2 0-2-2c0-1.467-.667-2-2.5-2s-2.5.533-2.5 2q0 2-2 2t-2-2-2-2-2 2-2 2-2-2c0-1.467-.667-2-2.5-2s-2.5.533-2.5 2q0 2-2 2t-2-2-2-2-2 2m132 0q0 2 2 2c1.467 0 2 .667 2 2.5s-.533 2.5-2 2.5q-2 0-2 2t2 2 2 2c0 1.467.667 2 2.5 2s2.5.533 2.5 2-.667 2-2.5 2c-2 0-2.5.5-2.5 2.5 0 1.833-.533 2.5-2 2.5q-2 0-2 2t2 2 2-2c0-1.467.667-2 2.5-2s2.5.533 2.5 2q0 2 2 2t2 2-2 2-2 2c0 1.481-.667 2-2.57 2-2.092 0-2.51.418-2.25 2.25.206 1.446 1.124 2.364 2.57 2.57 1.832.26 2.25-.158 2.25-2.25 0-1.903.519-2.57 2-2.57 1.467 0 2 .667 2 2.5s.533 2.5 2 2.5 2-.667 2-2.5-.533-2.5-2-2.5q-2 0-2-2t2-2 2-2-2-2-2-2 2-2c1.467 0 2-.667 2-2.5s-.533-2.5-2-2.5q-2 0-2-2t2-2 2-2-2-2-2-2 2-2c1.467 0 2-.667 2-2.5s-.533-2.5-2-2.5q-2 0-2-2t-2-2-2 2c0 1.467-.667 2-2.5 2s-2.5-.533-2.5-2q0-2-2-2t-2 2M.195 60.5c.02 1.65.244 2.204.498 1.231s.237-2.323-.037-3-.481.119-.461 1.769M21 60.5c0 1.833-.533 2.5-2 2.5q-2 0-2 2t-2 2-2 2 2 2 2 2 2 2 2-2c0-1.467.667-2 2.5-2s2.5-.533 2.5-2q0-2 2-2t2-2-2-2c-1.467 0-2-.667-2-2.5 0-2-.5-2.5-2.5-2.5s-2.5.5-2.5 2.5m73 0c0 1.833.533 2.5 2 2.5s2-.667 2-2.5-.533-2.5-2-2.5-2 .667-2 2.5m8 0c0 2 .5 2.5 2.5 2.5 1.833 0 2.5.533 2.5 2q0 2 2 2t2 2 2 2 2 2-2 2c-1.467 0-2 .667-2 2.5s.533 2.5 2 2.5q2 0 2 2c0 1.292.667 2 1.883 2 1.043 0 2.117-.893 2.407-2 .313-1.197 1.364-2 2.616-2 1.427 0 2.094.637 2.094 2 0 1.467-.667 2-2.5 2s-2.5.533-2.5 2 .667 2 2.5 2 2.5.533 2.5 2c0 1.363-.667 2-2.094 2-1.252 0-2.303-.803-2.616-2-.29-1.107-1.364-2-2.407-2-1.216 0-1.883.708-1.883 2q0 2 2 2c1.467 0 2 .667 2 2.5 0 2 .5 2.5 2.5 2.5 1.833 0 2.5.533 2.5 2q0 2 2 2t2-2 2-2 2 2c0 1.467.667 2 2.5 2s2.5-.533 2.5-2-.667-2-2.5-2c-2 0-2.5-.5-2.5-2.5 0-1.833.533-2.5 2-2.5 1.1 0 2.056.45 2.125 1s.181 1.563.25 2.25 1.137 1.394 2.375 1.57c1.446.205 2.25 1.009 2.25 2.25 0 1.263.691 1.93 2 1.93q2 0 2-2t2-2 2 2c0 1.467.667 2 2.5 2s2.5-.533 2.5-2q0-2 2-2t2 2 2 2 2-2 2-2 2 2c0 1.467.667 2 2.5 2s2.5-.533 2.5-2-.667-2-2.5-2c-2 0-2.5-.5-2.5-2.5s.5-2.5 2.5-2.5c1.833 0 2.5-.533 2.5-2s-.667-2-2.5-2-2.5-.533-2.5-2 .667-2 2.5-2 2.5-.533 2.5-2-.667-2-2.5-2-2.5.533-2.5 2q0 2-2 2t-2-2-2-2c-1.467 0-2-.667-2-2.5s-.533-2.5-2-2.5q-2 0-2-2c0-1.467-.667-2-2.5-2s-2.5.533-2.5 2q0 2-2 2t-2-2-2-2-2-2-2-2-2 2c0 1.467-.667 2-2.5 2s-2.5-.533-2.5-2q0-2-2-2t-2-2-2-2c-1.467 0-2-.667-2-2.5 0-2-.5-2.5-2.5-2.5s-2.5.5-2.5 2.5c0 1.833-.533 2.5-2 2.5s-2-.667-2-2.5-.533-2.5-2-2.5-2 .667-2 2.5-.533 2.5-2 2.5-2-.667-2-2.5c0-2-.5-2.5-2.5-2.5s-2.5.5-2.5 2.5m133 0c0 2-.5 2.5-2.5 2.5-1.833 0-2.5.533-2.5 2s.667 2 2.5 2 2.5.533 2.5 2q0 2 2 2t2-2-2-2-2-2 2-2c1.467 0 2-.667 2-2.5s-.533-2.5-2-2.5-2 .667-2 2.5M56.729 63.132C54.113 64.596 54.593 67 57.5 67c1.833 0 2.5.533 2.5 2s-.667 2-2.5 2-2.5.533-2.5 2 .667 2 2.5 2c2 0 2.5.5 2.5 2.5s-.5 2.5-2.5 2.5c-1.833 0-2.5.533-2.5 2q0 2-2 2c-2.901 0-2.676-3.765.25-4.18 1.477-.21 2.25-1.007 2.25-2.32s-.773-2.11-2.25-2.32c-1.478-.21-2.25-1.006-2.25-2.323 0-2.504-3.32-2.152-3.812.404-.231 1.2.308 1.739 1.739 1.739 1.545 0 2.073.637 2.073 2.5 0 1.833-.533 2.5-2 2.5q-2 0-2 2t-2 2-2 2 2 2 2 2-2 2c-1.467 0-2 .667-2 2.5 0 2-.5 2.5-2.5 2.5s-2.5-.5-2.5-2.5c0-1.833-.533-2.5-2-2.5s-2 .667-2 2.5.533 2.5 2 2.5q2 0 2 2t-2 2-2 2-2 2-2 2 2 2 2-2 2-2 2 2c0 1.467.667 2 2.5 2s2.5-.533 2.5-2q0-2 2-2t2 2 2 2 2-2 2-2 2 2c0 1.467.667 2 2.5 2s2.5-.533 2.5-2q0-2 2-2t2 2 2 2 2-2-2-2-2-2 2-2 2-2c0-1.467.667-2 2.5-2 2 0 2.5-.5 2.5-2.5 0-1.833.533-2.5 2-2.5q2 0 2-2c0-1.292-.667-2-1.883-2-1.043 0-2.117.893-2.407 2-.313 1.197-1.364 2-2.616 2C68.667 92 68 91.363 68 90c0-1.467.667-2 2.5-2s2.5-.533 2.5-2-.667-2-2.5-2-2.5-.533-2.5-2q0-2-2-2c-1.467 0-2-.667-2-2.5s.533-2.5 2-2.5q2 0 2-2c0-1.482.667-2 2.573-2 3.283 0 2.991-3.345-.333-3.82-1.701-.242-2.24.179-2.24 1.75 0 1.403-.644 2.07-2 2.07q-2 0-2-2t-2-2c-1.313 0-2-.667-2-1.941 0-2.495-1.099-3.143-3.271-1.927M21 65q0 2-2 2t-2 2 2 2 2-2c0-1.467.667-2 2.5-2s2.5-.533 2.5-2-.667-2-2.5-2-2.5.533-2.5 2m90 0q0 2 2 2t2 2c0 1.292.667 2 1.883 2 1.043 0 2.117.893 2.407 2 .313 1.197 1.364 2 2.616 2 1.567 0 2.094.629 2.094 2.5 0 1.833.533 2.5 2 2.5q2 0 2 2t-2 2-2 2 2 2 2 2-2 2c-1.467 0-2 .667-2 2.5s.533 2.5 2 2.5 2-.667 2-2.5.533-2.5 2-2.5q2 0 2-2c0-1.467.667-2 2.5-2s2.5.533 2.5 2q0 2 2 2c1.467 0 2 .667 2 2.5s.533 2.5 2 2.5 2-.667 2-2.5.533-2.5 2-2.5 2 .667 2 2.5c0 2 .5 2.5 2.5 2.5s2.5-.5 2.5-2.5c0-1.833.533-2.5 2-2.5s2 .667 2 2.5.533 2.5 2 2.5 2-.667 2-2.5.533-2.5 2-2.5q2 0 2-2t-2-2-2-2-2-2-2-2-2-2c-1.467 0-2-.667-2-2.5 0-2-.5-2.5-2.5-2.5s-2.5.5-2.5 2.5c0 1.833-.533 2.5-2 2.5s-2-.667-2-2.5-.533-2.5-2-2.5q-2 0-2-2t-2-2-2 2 2 2c1.467 0 2 .667 2 2.5s-.533 2.5-2 2.5q-2 0-2 2c0 1.467-.667 2-2.5 2s-2.5-.533-2.5-2c0-1.296.667-2 1.893-2 2.018 0 3.093-1.696 2.376-3.75-.239-.687-1.298-1.25-2.352-1.25-1.25 0-1.917-.696-1.917-2q0-2-2-2t-2-2-2-2-2-2c0-1.363-.667-2-2.094-2-1.252 0-2.303.803-2.616 2-.29 1.107-1.364 2-2.407 2-1.216 0-1.883-.708-1.883-2q0-2-2-2t-2 2M.158 69c0 1.375.227 1.938.504 1.25.278-.687.278-1.812 0-2.5-.277-.687-.504-.125-.504 1.25M119 69c0 1.467.667 2 2.5 2s2.5.533 2.5 2q0 2 2 2c1.467 0 2 .667 2 2.5s.533 2.5 2 2.5 2-.667 2-2.5-.533-2.5-2-2.5q-2 0-2-2t-2-2-2-2c0-1.467-.667-2-2.5-2s-2.5.533-2.5 2m-59 4q0 2 2 2t2-2-2-2-2 2m27.5 2c-.34.55-.168 1 .382 1s1.278-.45 1.618-1 .168-1-.382-1-1.278.45-1.618 1M.195 77.5c.02 1.65.244 2.204.498 1.231s.237-2.323-.037-3-.481.119-.461 1.769M4 77.5c0 1.786.54 2.5 1.893 2.5 2.018 0 3.093-1.696 2.376-3.75C8.03 75.563 6.971 75 5.917 75 4.539 75 4 75.703 4 77.5m69 0c0 1.375.477 2.5 1.059 2.5s.769-.47.414-1.044-.101-1.699.563-2.5c.974-1.173.894-1.456-.414-1.456-1.063 0-1.622.861-1.622 2.5m42 0c0 1.833.533 2.5 2 2.5s2-.667 2-2.5-.533-2.5-2-2.5-2 .667-2 2.5m120 0c0 1.833.533 2.5 2 2.5s2-.667 2-2.5-.533-2.5-2-2.5-2 .667-2 2.5M60 82c0 1.467-.667 2-2.5 2s-2.5.533-2.5 2q0 2-2 2t-2-2-2-2-2 2 2 2 2 2-2 2c-1.467 0-2 .667-2 2.5s-.533 2.5-2 2.5q-2 0-2 2c0 1.467-.667 2-2.5 2s-2.5.533-2.5 2 .667 2 2.5 2 2.5-.533 2.5-2q0-2 2-2t2 2 2 2 2-2 2-2 2 2c0 1.467.667 2 2.5 2s2.5-.533 2.5-2q0-2 2-2t2-2 2-2c1.467 0 2-.667 2-2.5s-.533-2.5-2-2.5q-2 0-2-2t2-2 2-2-2-2-2-2-2-2-2 2m81 0q0 2-2 2t-2 2 2 2 2 2 2 2 2-2 2-2 2 2c0 1.467.667 2 2.5 2s2.5-.533 2.5-2q0-2 2-2t2 2 2 2 2-2-2-2-2-2-2-2-2-2c0-1.467-.667-2-2.5-2s-2.5.533-2.5 2q0 2-2 2t-2-2-2-2-2 2M.158 86c0 1.375.227 1.938.504 1.25.278-.687.278-1.812 0-2.5-.277-.687-.504-.125-.504 1.25M13 86q0 2 2 2t2-2-2-2-2 2m47 0c0 1.467-.667 2-2.5 2s-2.5.533-2.5 2q0 2-2 2c-1.467 0-2 .667-2 2.5s-.533 2.5-2 2.5q-2 0-2 2t2 2c1.309 0 2-.667 2-1.93 0-1.241.804-2.045 2.25-2.25 1.237-.176 2.306-.882 2.375-1.57.069-.687.181-1.7.25-2.25S56.9 92 58 92c1.467 0 2 .667 2 2.5 0 2-.5 2.5-2.5 2.5-1.833 0-2.5.533-2.5 2s.667 2 2.5 2 2.5-.533 2.5-2q0-2 2-2c1.467 0 2-.667 2-2.5s-.533-2.5-2-2.5q-2 0-2-2t2-2 2-2-2-2-2 2m68 0q0 2 2 2t2-2-2-2-2 2m13 0q0 2 2 2t2-2-2-2-2 2m8 0c0 1.467.667 2 2.5 2s2.5-.533 2.5-2-.667-2-2.5-2-2.5.533-2.5 2M.195 94.5c.02 1.65.244 2.204.498 1.231s.237-2.323-.037-3-.481.119-.461 1.769M.158 103c0 1.375.227 1.938.504 1.25.278-.687.278-1.812 0-2.5-.277-.687-.504-.125-.504 1.25m79.037 4.5c.02 1.65.244 2.204.498 1.231s.237-2.323-.037-3-.481.119-.461 1.769m17 0c.02 1.65.244 2.204.498 1.231s.237-2.323-.037-3-.481.119-.461 1.769m18.805-.208c0 2.026.399 2.354 2.397 1.972 2.997-.572 2.819-3.631-.238-4.084-1.708-.252-2.159.189-2.159 2.112m74.75 2.397c-.963.252-1.75 1.325-1.75 2.384 0 1.389-.698 1.927-2.5 1.927-1.833 0-2.5.533-2.5 2q0 2-2 2c-2.833 0-2.69-3.759.159-4.18 3.129-.463 3.351-3.82.253-3.82-1.745 0-2.412.553-2.412 2q0 2-2 2t-2-2-2-2-2 2c0 1.467-.667 2-2.5 2s-2.5-.533-2.5-2q0-2-2-2t-2 2-2 2-2-2-2-2-2 2c0 1.467-.667 2-2.5 2s-2.5-.533-2.5-2q0-2-2-2t-2 2-2 2-2-2c0-1.447-.667-2-2.412-2-3.098 0-2.876 3.357.253 3.82 2.849.421 2.992 4.18.159 4.18q-2 0-2-2c0-1.467-.667-2-2.5-2s-2.5-.533-2.5-2q0-2-2-2t-2 2-2 2-2-2c0-1.467-.667-2-2.5-2s-2.5.533-2.5 2 .667 2 2.5 2 2.5.533 2.5 2q0 2 2 2t2 2-2 2c-1.467 0-2 .667-2 2.5s.533 2.5 2 2.5q2 0 2 2t2 2 2 2c0 1.467.667 2 2.5 2s2.5-.533 2.5-2-.667-2-2.5-2-2.5-.533-2.5-2c0-1.363.667-2 2.094-2 1.252 0 2.303.803 2.616 2 .29 1.107 1.364 2 2.407 2 1.216 0 1.883-.708 1.883-2q0-2 2-2t2 2 2 2 2-2c0-1.467.667-2 2.5-2s2.5.533 2.5 2q0 2 2 2t2 2-2 2-2 2c0 1.467-.667 2-2.5 2-2 0-2.5.5-2.5 2.5 0 1.833-.533 2.5-2 2.5q-2 0-2 2t2 2 2 2-2 2-2 2-2 2-2-2c0-1.442-.667-2-2.389-2-1.661 0-2.346.533-2.25 1.75.088 1.107-.686 1.866-2.111 2.069-1.628.232-2.25.992-2.25 2.751 0 1.763-.549 2.43-2 2.43q-2 0-2 2t-2 2-2-2c0-1.363-.667-2-2.094-2-1.252 0-2.303.803-2.616 2-.29 1.107-1.364 2-2.407 2-1.216 0-1.883.708-1.883 2q0 2 2 2t2 2c0 1.467.667 2 2.5 2s2.5-.533 2.5-2q0-2 2-2t2 2 2 2 2-2c0-1.467.667-2 2.5-2s2.5-.533 2.5-2q0-2 2-2c2.833 0 2.69 3.759-.159 4.18-3.129.463-3.351 3.82-.253 3.82 1.745 0 2.412-.553 2.412-2q0-2 2-2t2 2 2 2 2-2c0-1.467.667-2 2.5-2s2.5.533 2.5 2q0 2 2 2t2-2 2-2 2 2 2 2 2-2c0-1.467.667-2 2.5-2s2.5.533 2.5 2q0 2 2 2t2-2 2-2 2-2-2-2-2-2 2-2c1.467 0 2-.667 2-2.5s.533-2.5 2-2.5 2 .667 2 2.5c0 2 .5 2.5 2.5 2.5s2.5-.5 2.5-2.5c0-1.871-.527-2.5-2.094-2.5-1.252 0-2.303-.803-2.616-2-.29-1.107-1.364-2-2.407-2-1.216 0-1.883-.708-1.883-2s.667-2 1.883-2c1.043 0 2.117-.893 2.407-2 .313-1.197 1.364-2 2.616-2 1.427 0 2.094.637 2.094 2q0 2 2 2t2-2-2-2c-1.467 0-2-.667-2-2.5 0-1.871-.527-2.5-2.094-2.5-1.252 0-2.303-.803-2.616-2-.29-1.107-1.364-2-2.407-2-1.216 0-1.883-.708-1.883-2s.667-2 1.883-2c1.043 0 2.117-.893 2.407-2 .313-1.197 1.364-2 2.616-2 1.567 0 2.094-.629 2.094-2.5 0-2-.5-2.5-2.5-2.5-1.833 0-2.5-.533-2.5-2s.667-2 2.5-2 2.5-.533 2.5-2q0-2 2-2c1.467 0 2-.667 2-2.5 0-1.375-.113-2.448-.25-2.384s-1.037.322-2 .573M.158 112c0 1.375.227 1.938.504 1.25.278-.687.278-1.812 0-2.5-.277-.687-.504-.125-.504 1.25M34 112q0 2 2 2t2 2-2 2-2 2-2 2-2-2-2-2-2 2 2 2c1.467 0 2 .667 2 2.5s-.533 2.5-2 2.5q-2 0-2 2t2 2 2 2-2 2-2 2 2 2c1.467 0 2 .667 2 2.5s.533 2.5 2 2.5q2 0 2 2t-2 2-2 2 2 2 2 2 2 2c1.467 0 2 .667 2 2.5s-.533 2.5-2 2.5q-2 0-2 2t2 2 2 2c0 1.467.667 2 2.5 2s2.5.533 2.5 2q0 2 2 2t2-2 2-2 2 2c0 1.447.667 2 2.412 2 3.098 0 2.876-3.357-.253-3.82-2.849-.421-2.992-4.18-.159-4.18q2 0 2 2c0 1.467.667 2 2.5 2s2.5.533 2.5 2q0 2 2 2t2-2 2-2 2 2c0 1.467.667 2 2.5 2s2.5-.533 2.5-2q0-2 2-2c1.292 0 2 .667 2 1.883 0 1.043.893 2.117 2 2.407 1.591.416 2 .03 2-1.884 0-1.739-.554-2.406-2-2.406q-2 0-2-2t-2-2-2 2c0 1.467-.667 2-2.5 2s-2.5-.533-2.5-2q0-2-2-2t-2-2 2-2c1.467 0 2-.667 2-2.5s-.533-2.5-2-2.5q-2 0-2-2t-2-2-2-2 2-2 2-2-2-2c-1.467 0-2-.667-2-2.5 0-1.871-.527-2.5-2.094-2.5-1.252 0-2.303-.803-2.616-2-.29-1.107-1.364-2-2.407-2-1.216 0-1.883-.708-1.883-2s.667-2 1.883-2c1.043 0 2.117-.893 2.407-2 .313-1.197 1.364-2 2.616-2 1.567 0 2.094-.629 2.094-2.5 0-2-.5-2.5-2.5-2.5-1.833 0-2.5-.533-2.5-2s.667-2 2.5-2 2.5-.533 2.5-2q0-2 2-2t2-2-2-2-2 2c0 1.467-.667 2-2.5 2s-2.5.533-2.5 2q0 2-2 2c-2.833 0-2.69-3.759.159-4.18 3.129-.463 3.351-3.82.253-3.82-1.745 0-2.412.553-2.412 2q0 2-2 2t-2-2-2-2-2 2c0 1.467-.667 2-2.5 2s-2.5-.533-2.5-2q0-2-2-2t-2 2m205 0q0 2-2 2t-2 2 2 2 2 2-2 2c-1.467 0-2 .667-2 2.5s.533 2.5 2 2.5q2 0 2 2t-2 2-2 2 2 2 2 2-2 2c-1.467 0-2 .667-2 2.5s.533 2.5 2 2.5q2 0 2 2t-2 2-2 2 2 2 2 2-2 2c-1.451 0-2 .667-2 2.43 0 1.756-.622 2.52-2.24 2.75-3.324.475-3.616 3.82-.333 3.82 1.906 0 2.573.518 2.573 2 0 1.467-.667 2-2.5 2s-2.5.533-2.5 2 .667 2 2.5 2 2.5-.533 2.5-2q0-2 2-2t2 2 2 2 2-2 2-2 2 2c0 1.467.667 2 2.5 2s2.5-.533 2.5-2q0-2 2-2t2-2-2-2-2-2 2-2c1.467 0 2-.667 2-2.5s-.533-2.5-2-2.5q-2 0-2-2t2-2 2-2-2-2-2-2 2-2c1.467 0 2-.667 2-2.5s-.533-2.5-2-2.5q-2 0-2-2t2-2 2-2-2-2-2-2 2-2c1.467 0 2-.667 2-2.5s-.533-2.5-2-2.5q-2 0-2-2t2-2 2-2-2-2-2-2c0-1.467-.667-2-2.5-2s-2.5.533-2.5 2q0 2-2 2t-2-2-2-2-2 2m-158 1c0 .55.477 1 1.059 1s.781-.45.441-1-.816-1-1.059-1-.441.45-.441 1m13.718 2.488c.98 1.347 2.135 2.463 2.567 2.481 1.299.052-1.109-3.687-2.79-4.332-1.297-.498-1.26-.187.223 1.851M43 116c0 1.467-.667 2-2.5 2s-2.5.533-2.5 2q0 2-2 2c-1.467 0-2 .667-2 2.5s-.533 2.5-2 2.5q-2 0-2 2t2 2 2 2-2 2-2 2 2 2c1.467 0 2 .667 2 2.5s.533 2.5 2 2.5q2 0 2 2t-2 2-2 2 2 2 2 2c0 1.467.667 2 2.5 2 2 0 2.5.5 2.5 2.5s-.5 2.5-2.5 2.5c-1.833 0-2.5.533-2.5 2s.667 2 2.5 2 2.5.533 2.5 2q0 2 2 2t2-2 2-2 2-2 2-2 2 2c0 1.467.667 2 2.5 2s2.5.533 2.5 2q0 2 2 2t2-2-2-2-2-2 2-2c1.467 0 2-.667 2-2.5s-.533-2.5-2-2.5q-2 0-2-2c0-1.467-.667-2-2.5-2s-2.5-.533-2.5-2 .667-2 2.5-2 2.5-.533 2.5-2c0-1.363-.667-2-2.094-2-1.252 0-2.303.803-2.616 2-.29 1.107-1.364 2-2.407 2-1.216 0-1.883-.708-1.883-2q0-2 2-2c1.467 0 2-.667 2-2.5s-.533-2.5-2-2.5q-2 0-2-2t-2-2-2-2 2-2 2-2 2-2c1.467 0 2-.667 2-2.5s-.533-2.5-2-2.5q-2 0-2-2t-2-2-2-2-2-2-2 2m85 0q0 2 2 2t2 2-2 2c-1.467 0-2 .667-2 2.5s.533 2.5 2 2.5 2-.667 2-2.5c0-2 .5-2.5 2.5-2.5s2.5.5 2.5 2.5c0 1.833.533 2.5 2 2.5s2-.667 2-2.5.533-2.5 2-2.5 2 .667 2 2.5.533 2.5 2 2.5 2-.667 2-2.5c0-2 .5-2.5 2.5-2.5s2.5.5 2.5 2.5c0 1.833.533 2.5 2 2.5q2 0 2 2t2 2 2 2-2 2-2 2-2 2c-1.467 0-2 .667-2 2.5 0 2-.5 2.5-2.5 2.5-1.833 0-2.5.533-2.5 2s.667 2 2.5 2 2.5.533 2.5 2-.667 2-2.5 2-2.5.533-2.5 2q0 2-2 2c-1.467 0-2 .667-2 2.5s-.533 2.5-2 2.5-2-.667-2-2.5-.533-2.5-2-2.5-2 .667-2 2.5c0 2-.5 2.5-2.5 2.5-1.833 0-2.5.533-2.5 2q0 2-2 2t-2 2 2 2 2-2c0-1.467.667-2 2.5-2s2.5-.533 2.5-2q0-2 2-2t2 2 2 2 2 2 2 2 2-2c0-1.467.667-2 2.5-2s2.5.533 2.5 2q0 2 2 2t2-2 2-2 2 2 2 2 2-2c0-1.467.667-2 2.5-2s2.5.533 2.5 2q0 2 2 2t2-2-2-2-2-2 2-2c1.467 0 2-.667 2-2.5s.533-2.5 2-2.5q2 0 2-2t-2-2-2-2 2-2 2-2 2-2c1.467 0 2-.667 2-2.5s-.533-2.5-2-2.5q-2 0-2-2t-2-2-2-2 2-2 2-2 2-2c1.467 0 2-.667 2-2.5s-.533-2.5-2-2.5q-2 0-2-2t-2-2-2-2-2-2-2 2c0 1.467-.667 2-2.5 2s-2.5-.533-2.5-2q0-2-2-2t-2 2-2 2-2-2-2-2-2 2c0 1.467-.667 2-2.5 2s-2.5-.533-2.5-2q0-2-2-2t-2 2-2 2-2 2-2 2-2-2c0-1.467-.667-2-2.5-2s-2.5-.533-2.5-2q0-2-2-2t-2 2m111 0q0 2 2 2t2 2-2 2c-1.467 0-2 .667-2 2.5s.533 2.5 2 2.5q2 0 2 2t-2 2-2 2 2 2 2 2-2 2c-1.467 0-2 .667-2 2.5s.533 2.5 2 2.5q2 0 2 2t-2 2-2 2 2 2 2 2-2 2c-1.467 0-2 .667-2 2.5s-.533 2.5-2 2.5q-2 0-2 2t2 2 2 2 2 2 2-2 2-2 2 2c0 1.467.667 2 2.5 2s2.5-.533 2.5-2-.667-2-2.5-2-2.5-.533-2.5-2 .667-2 2.5-2c2 0 2.5-.5 2.5-2.5 0-1.833-.533-2.5-2-2.5-1.1 0-2.056.45-2.125 1s-.181 1.563-.25 2.25-1.137 1.394-2.375 1.57c-1.832.26-2.25-.158-2.25-2.25 0-1.903.519-2.57 2-2.57q2 0 2-2c0-1.467.667-2 2.5-2s2.5-.533 2.5-2-.667-2-2.5-2-2.5-.533-2.5-2 .667-2 2.5-2c2 0 2.5-.5 2.5-2.5s-.5-2.5-2.5-2.5c-1.833 0-2.5-.533-2.5-2s.667-2 2.5-2 2.5-.533 2.5-2-.667-2-2.5-2-2.5-.533-2.5-2q0-2-2-2c-1.481 0-2-.667-2-2.57 0-2.092.418-2.51 2.25-2.25 1.238.176 2.306.883 2.375 1.57s.181 1.7.25 2.25 1.025 1 2.125 1c1.467 0 2-.667 2-2.5 0-2-.5-2.5-2.5-2.5-1.833 0-2.5-.533-2.5-2s.667-2 2.5-2 2.5-.533 2.5-2-.667-2-2.5-2-2.5.533-2.5 2q0 2-2 2t-2-2-2-2-2 2m-152.654.134c1.324.769 2.159.761 2.95-.03.805-.805.305-1.096-1.846-1.074-2.586.027-2.722.163-1.104 1.104M4 120c0 1.467.667 2 2.5 2 2 0 2.5.5 2.5 2.5 0 1.833.533 2.5 2 2.5q2 0 2 2c0 1.292-.667 2-1.883 2-1.043 0-2.117-.893-2.407-2-.313-1.197-1.364-2-2.616-2-1.427 0-2.094.637-2.094 2 0 1.467.667 2 2.5 2s2.5.533 2.5 2-.667 2-2.5 2-2.5.533-2.5 2c0 1.363.667 2 2.094 2 1.252 0 2.303-.803 2.616-2 .29-1.107 1.364-2 2.407-2 1.216 0 1.883.708 1.883 2q0 2-2 2c-1.467 0-2 .667-2 2.5s.533 2.5 2 2.5q2 0 2 2c0 1.292-.667 2-1.883 2-1.043 0-2.117-.893-2.407-2-.313-1.197-1.364-2-2.616-2-1.427 0-2.094.637-2.094 2 0 1.467.667 2 2.5 2s2.5.533 2.5 2-.667 2-2.5 2-2.5.533-2.5 2c0 1.363.667 2 2.094 2 1.252 0 2.303-.803 2.616-2 .29-1.107 1.364-2 2.407-2 1.216 0 1.883.708 1.883 2q0 2-2 2c-1.467 0-2 .667-2 2.5 0 2-.5 2.5-2.5 2.5-1.833 0-2.5.533-2.5 2s.667 2 2.5 2 2.5-.533 2.5-2q0-2 2-2t2 2 2 2 2 2 2 2 2-2c0-1.111.667-2 1.5-2 1.613 0 1.853-.916.895-3.412-.781-2.036-2.395-1.044-2.395 1.471 0 1.274-.687 1.941-2 1.941q-2 0-2-2c0-1.289.667-2 1.875-2 1.304 0 2.067-.962 2.507-3.16.348-1.738.404-3.388.125-3.666-.279-.279-.507.201-.507 1.066 0 1.08-.626 1.409-2 1.05-1.159-.303-2-1.364-2-2.523 0-1.508.492-1.872 2-1.477 1.508.394 2 .03 2-1.477 0-1.159-.841-2.22-2-2.523-2.356-.616-2.727-4.29-.433-4.29 1.166 0 1.389-.576.868-2.25-.385-1.238-1.09-2.4-1.567-2.583-1.21-.465-1.092-4.167.132-4.167.55 0 1-1.152 1-2.559 0-1.451-.433-2.292-1-1.941-.55.34-1 1.491-1 2.559 0 1.274-.687 1.941-2 1.941q-2 0-2-2t2-2 2-2-2-2c-1.467 0-2-.667-2-2.5s-.533-2.5-2-2.5q-2 0-2-2c0-1.467-.667-2-2.5-2s-2.5.533-2.5 2m39 0c0 1.467-.667 2-2.5 2-2 0-2.5.5-2.5 2.5 0 1.833-.533 2.5-2 2.5q-2 0-2 2t2 2 2 2-2 2-2 2 2 2c1.467 0 2 .667 2 2.5 0 2 .5 2.5 2.5 2.5 1.833 0 2.5.533 2.5 2s-.667 2-2.5 2-2.5.533-2.5 2 .667 2 2.5 2 2.5.533 2.5 2q0 2 2 2c1.467 0 2 .667 2 2.5s-.533 2.5-2 2.5q-2 0-2 2t2 2 2-2 2-2c1.467 0 2-.667 2-2.5s.533-2.5 2-2.5 2 .667 2 2.5c0 2 .5 2.5 2.5 2.5s2.5-.5 2.5-2.5c0-1.871-.527-2.5-2.094-2.5-1.252 0-2.303-.803-2.616-2-.29-1.107-1.364-2-2.407-2-1.216 0-1.883-.708-1.883-2q0-2-2-2t-2-2 2-2c1.467 0 2-.667 2-2.5s-.533-2.5-2-2.5q-2 0-2-2t-2-2-2-2 2-2 2-2 2-2c1.467 0 2-.667 2-2.5s-.533-2.5-2-2.5q-2 0-2-2t-2-2-2 2m102 0q0 2 2 2t2-2-2-2-2 2m9 0q0 2 2 2c1.467 0 2 .667 2 2.5s.533 2.5 2 2.5q2 0 2 2t2 2 2 2-2 2-2 2-2 2c-1.467 0-2 .667-2 2.5s-.533 2.5-2 2.5q-2 0-2 2t2 2 2 2-2 2-2 2c0 1.467-.667 2-2.5 2-2 0-2.5.5-2.5 2.5 0 1.833-.533 2.5-2 2.5q-2 0-2 2t2 2 2-2c0-1.467.667-2 2.5-2s2.5.533 2.5 2q0 2 2 2t2-2 2-2 2 2 2 2 2-2c0-1.467.667-2 2.5-2 2 0 2.5-.5 2.5-2.5 0-1.833.533-2.5 2-2.5q2 0 2-2t-2-2-2-2 2-2 2-2 2-2c1.467 0 2-.667 2-2.5s-.533-2.5-2-2.5q-2 0-2-2t-2-2-2-2 2-2 2-2 2-2c1.467 0 2-.667 2-2.5s-.533-2.5-2-2.5q-2 0-2-2t-2-2-2 2c0 1.467-.667 2-2.5 2s-2.5-.533-2.5-2q0-2-2-2t-2 2-2 2-2-2-2-2-2 2m-111 4.5c0 2-.5 2.5-2.5 2.5-1.833 0-2.5.533-2.5 2s.667 2 2.5 2 2.5-.533 2.5-2q0-2 2-2c1.467 0 2-.667 2-2.5s-.533-2.5-2-2.5-2 .667-2 2.5m68.507-1.511c-.35.566.051.734.941.393 1.732-.665 2.049-1.382.611-1.382-.518 0-1.216.445-1.552.989M162 124.5c0 1.833.533 2.5 2 2.5q2 0 2 2c0 1.467.667 2 2.5 2s2.5-.533 2.5-2q0-2 2-2c1.467 0 2-.667 2-2.5s-.533-2.5-2-2.5-2 .667-2 2.5c0 2-.5 2.5-2.5 2.5s-2.5-.5-2.5-2.5c0-1.833-.533-2.5-2-2.5s-2 .667-2 2.5m-77 4.139c0 1.694-.565 2.361-2 2.361q-2 0-2 2t2 2 2 2-2 2c-1.467 0-2 .667-2 2.5s.533 2.5 2 2.5q2 0 2 2c0 1.467.667 2 2.5 2s2.5-.533 2.5-2q0-2 2-2t2 2 2 2 2-2 2-2 2 2c0 1.467.667 2 2.5 2s2.5.533 2.5 2q0 2 2 2t2-2 2-2c1.309 0 2-.667 2-1.93 0-1.241.804-2.045 2.25-2.25 1.477-.21 2.25-1.007 2.25-2.32s-.773-2.11-2.25-2.32c-1.832-.26-2.25.158-2.25 2.25 0 1.903-.519 2.57-2 2.57-1.467 0-2-.667-2-2.5s-.533-2.5-2-2.5q-2 0-2-2c0-1.467-.667-2-2.5-2s-2.5-.533-2.5-2q0-2-2-2t-2-2-2-2-2 2-2 2c-1.292 0-2-.667-2-1.883s-.887-2.053-2.5-2.362c-2.096-.4-2.5-.096-2.5 1.884M55 133c0 1.467.667 2 2.5 2s2.5-.533 2.5-2-.667-2-2.5-2-2.5.533-2.5 2m30 0c0 1.467.667 2 2.5 2s2.5.533 2.5 2-.667 2-2.5 2c-2 0-2.5.5-2.5 2.5s.5 2.5 2.5 2.5 2.5-.5 2.5-2.5c0-1.833.533-2.5 2-2.5s2 .667 2 2.5.533 2.5 2 2.5 2-.667 2-2.5.533-2.5 2-2.5 2 .667 2 2.5c0 2 .5 2.5 2.5 2.5 1.833 0 2.5.533 2.5 2q0 2 2 2t2-2-2-2c-1.467 0-2-.667-2-2.5 0-2-.5-2.5-2.5-2.5-1.833 0-2.5-.533-2.5-2q0-2-2-2t-2-2-2-2-2 2-2 2-2-2c0-1.467-.667-2-2.5-2s-2.5.533-2.5 2m98 0c0 1.467.667 2 2.5 2s2.5-.533 2.5-2-.667-2-2.5-2-2.5.533-2.5 2m60 0q0 2 2 2t2-2-2-2-2 2m-205 4c0 1.467.667 2 2.5 2 2 0 2.5.5 2.5 2.5 0 1.833.533 2.5 2 2.5s2-.667 2-2.5-.533-2.5-2-2.5q-2 0-2-2c0-1.467-.667-2-2.5-2s-2.5.533-2.5 2m56 0q0 2 2 2t2-2-2-2-2 2m72 0q0 2-2 2c-1.467 0-2 .667-2 2.5s-.533 2.5-2 2.5q-2 0-2 2t2 2 2 2-2 2-2 2-2 2c-1.467 0-2 .667-2 2.5s.533 2.5 2 2.5 2-.667 2-2.5.533-2.5 2-2.5 2 .667 2 2.5.533 2.5 2 2.5 2-.667 2-2.5c0-2 .5-2.5 2.5-2.5 1.833 0 2.5-.533 2.5-2s-.667-2-2.5-2-2.5-.533-2.5-2 .667-2 2.5-2 2.5-.533 2.5-2q0-2 2-2c1.467 0 2-.667 2-2.5s-.533-2.5-2-2.5q-2 0-2-2c0-1.467-.667-2-2.5-2s-2.5.533-2.5 2m-153 4.5c0 1.833.533 2.5 2 2.5s2-.667 2-2.5-.533-2.5-2-2.5-2 .667-2 2.5m153 0c0 1.833-.533 2.5-2 2.5q-2 0-2 2t2 2 2-2c0-1.467.667-2 2.5-2 2 0 2.5-.5 2.5-2.5s-.5-2.5-2.5-2.5-2.5.5-2.5 2.5m77 0c0 2.165.404 2.582 2.25 2.32 1.477-.21 2.25-1.007 2.25-2.32s-.773-2.11-2.25-2.32c-1.846-.262-2.25.155-2.25 2.32M13 150q0 2 2 2t2-2-2-2-2 2m30 0q0 2 2 2t2 2 2 2 2-2-2-2-2-2-2-2-2 2m200 0q0 2 2 2t2-2-2-2-2 2m-81 4q0 2 2 2t2-2-2-2-2 2m-149 4.5c0 1.833.533 2.5 2 2.5s2-.667 2-2.5-.533-2.5-2-2.5-2 .667-2 2.5m72.442-.893a77 77 0 0 1-1.523 4.19c-1.123 2.806-1.138 3.203-.126 3.203.859 0 3.317-8.223 2.656-8.884-.221-.221-.674.45-1.007 1.491m19.573-1.557c.009.247.689 2.475 1.513 4.95l1.498 4.5-.591-4c-.325-2.2-1.006-4.428-1.513-4.95s-.915-.747-.907-.5M239 163q0 2 2 2t2-2-2-2-2 2m-120 4c0 1.467.667 2 2.5 2s2.5-.533 2.5-2-.667-2-2.5-2-2.5.533-2.5 2m64.459 3.067c-.363.586-.445 1.281-.183 1.543s.743-.218 1.069-1.067c.676-1.762.1-2.072-.886-.476m-156.82 3.627c-.351.352-.639 1.464-.639 2.473 0 1.289-.742 1.833-2.5 1.833-1.833 0-2.5.533-2.5 2q0 2-2 2t-2-2-2-2-2 2-2 2-2-2c0-1.467-.667-2-2.5-2s-2.5.533-2.5 2 .667 2 2.5 2 2.5.533 2.5 2-.667 2-2.5 2c-2 0-2.5.5-2.5 2.5 0 1.833.533 2.5 2 2.5 1.1 0 2.056-.45 2.125-1s.181-1.562.25-2.25 1.137-1.394 2.375-1.57c1.832-.26 2.25.158 2.25 2.25 0 1.903-.519 2.57-2 2.57q-2 0-2 2c0 1.467-.667 2-2.5 2s-2.5.533-2.5 2 .667 2 2.5 2 2.5.533 2.5 2q0 2 2 2c1.467 0 2 .667 2 2.5s-.533 2.5-2 2.5q-2 0-2 2c0 1.467-.667 2-2.5 2s-2.5.533-2.5 2 .667 2 2.5 2 2.5.533 2.5 2q0 2 2 2c1.481 0 2 .667 2 2.57 0 2.092-.418 2.51-2.25 2.25-1.237-.176-2.306-.882-2.375-1.57-.069-.687-.181-1.7-.25-2.25S7.1 220 6 220c-1.467 0-2 .667-2 2.5 0 2 .5 2.5 2.5 2.5 1.833 0 2.5.533 2.5 2s-.667 2-2.5 2-2.5.533-2.5 2 .667 2 2.5 2 2.5-.533 2.5-2q0-2 2-2t2 2 2 2 2-2 2-2 2 2c0 1.467.667 2 2.5 2s2.5-.533 2.5-2q0-2 2-2t2 2 2 2 2-2 2-2 2 2c0 1.467.667 2 2.5 2s2.5-.533 2.5-2q0-2 2-2t2 2 2 2 2-2 2-2 2 2c0 1.467.667 2 2.5 2s2.5-.533 2.5-2q0-2 2-2t2 2 2 2 2-2c0-1.467.667-2 2.5-2 1.802 0 2.5-.538 2.5-1.927 0-1.059.69-2.072 1.534-2.25 1.231-.259 1.139-.567-.463-1.558-1.676-1.037-1.905-.997-1.427.25.414 1.079-.142 1.485-2.037 1.485-1.94 0-2.607.511-2.607 2q0 2-2 2t-2-2c0-1.292.667-2 1.883-2 1.171 0 2.05-.869 2.323-2.297.349-1.826-.036-2.336-1.884-2.488-1.859-.154-2.322.304-2.322 2.296 0 1.822-.536 2.489-2 2.489-1.467 0-2-.667-2-2.5 0-1.786.54-2.5 1.893-2.5 1.899 0 3.491-2.283 2.371-3.402C62.83 215.163 60 216.093 60 218q0 2-2 2c-1.1 0-2.056.45-2.125 1s-.181 1.563-.25 2.25-1.138 1.394-2.375 1.57c-1.832.26-2.25-.158-2.25-2.25 0-1.903.519-2.57 2-2.57q2 0 2-2c0-1.454.667-2 2.441-2 3.211 0 4.123-1.628 1.653-2.95-2.913-1.559-4.094-1.285-4.094.95q0 2-2 2t-2-2c0-1.313.667-2 1.941-2 3.728 0 2.958-1.765-3.414-7.824-3.53-3.357-6.899-7.003-7.488-8.103-1.284-2.4-4.039-1.695-4.039 1.034 0 1.226-.704 1.893-2 1.893q-2 0-2-2c0-1.296.667-2 1.893-2 1.912 0 3.539-2.492 2.609-3.996-.919-1.488-4.502.193-4.502 2.113 0 1.216-.708 1.883-2 1.883q-2 0-2-2t2-2c1.352 0 2-.667 2-2.059 0-1.132.445-1.784.989-1.448s.746-.02.449-.793c-.336-.877-1.458-1.228-2.988-.935-1.95.373-2.45.053-2.45-1.565 0-1.118.563-2.24 1.25-2.492 1-.366 1-.723 0-1.783-1.029-1.091-1.25-1.025-1.25.375 0 1.033-.784 1.7-2 1.7q-2 0-2-2c0-1.301.667-2 1.906-2 1.419 0 1.772-.515 1.38-2.016-.597-2.282-1.7-3.237-2.647-2.29M47 176q0 2 2 2t2 2-2 2-2 2 2 2c1.363 0 2 .667 2 2.094 0 1.218.797 2.302 1.908 2.592 1.049.274 2.132 1.357 2.406 2.406C56.006 195.738 60 195.66 60 193q0-2 2-2c1.467 0 2-.667 2-2.5s-.533-2.5-2-2.5q-2 0-2-2t2-2 2-2 2-2 2 2c0 1.467.667 2 2.5 2s2.5-.533 2.5-2-.667-2-2.5-2-2.5-.533-2.5-2q0-2-2-2t-2 2-2 2-2-2c0-1.467-.667-2-2.5-2s-2.5.533-2.5 2q0 2-2 2t-2-2-2-2-2 2m25.429-.25c.139.963 1.224 1.894 2.412 2.07 1.619.239 2.159-.198 2.159-1.75 0-1.521-.64-2.07-2.412-2.07-1.726 0-2.339.497-2.159 1.75m42.571.32c0 1.552.54 1.989 2.159 1.75 3.129-.463 3.351-3.82.253-3.82-1.772 0-2.412.549-2.412 2.07m9-.07c0 1.467-.667 2-2.5 2s-2.5.533-2.5 2 .667 2 2.5 2 2.5-.533 2.5-2q0-2 2-2t2 2 2 2 2-2c0-1.467.667-2 2.5-2s2.5.533 2.5 2q0 2 2 2t2-2 2-2 2 2 2 2 2-2c0-1.467.667-2 2.5-2s2.5.533 2.5 2q0 2 2 2t2 2 2 2 2-2 2-2 2 2c0 1.467.667 2 2.5 2s2.5-.533 2.5-2q0-2 2-2t2-2 2-2 2-2-2-2-2 2-2 2-2-2c0-1.467-.667-2-2.5-2s-2.5.533-2.5 2q0 2-2 2t-2-2-2-2-2 2-2 2-2-2c0-1.467-.667-2-2.5-2s-2.5.533-2.5 2q0 2-2 2t-2-2-2-2-2 2-2 2-2-2c0-1.467-.667-2-2.5-2s-2.5.533-2.5 2q0 2-2 2t-2-2-2-2-2 2M.158 180c0 1.375.227 1.938.504 1.25.278-.687.278-1.812 0-2.5-.277-.687-.504-.125-.504 1.25M55 180q0 2-2 2c-2.901 0-2.676 3.765.25 4.18 1.237.176 2.306.883 2.375 1.57s.181 1.7.25 2.25 1.025 1 2.125 1c1.467 0 2-.667 2-2.5 0-2-.5-2.5-2.5-2.5-1.833 0-2.5-.533-2.5-2s.667-2 2.5-2 2.5-.533 2.5-2-.667-2-2.5-2-2.5.533-2.5 2m103 0q0 2 2 2t2-2-2-2-2 2m8 0c0 1.467.667 2 2.5 2s2.5-.533 2.5-2-.667-2-2.5-2-2.5.533-2.5 2m69 0c0 1.467-.667 2-2.5 2s-2.5.533-2.5 2q0 2-2 2c-1.292 0-2-.667-2-1.883 0-1.178-.872-2.051-2.329-2.329-1.985-.38-2.263-.102-1.883 1.883.343 1.795-.002 2.329-1.505 2.329-2.576 0-3.171.712-2.558 3.058.28 1.068 1.356 1.942 2.392 1.942 1.216 0 1.883.708 1.883 2q0 2-2 2c-1.296 0-2-.667-2-1.893 0-3.743-2.701-2.96-6.366 1.845-3.797 4.979-18.942 19.728-22.239 21.657-2.54 1.486-2.393 2.82.355 3.211 3.031.43 3.26 5.18.25 5.18-1.465 0-2-.667-2-2.494 0-2.022-.426-2.428-2.25-2.148-1.414.218-2.251 1.046-2.252 2.231-.002 2.162-3.383 3.215-4.503 1.403-.533-.863-.939-.891-1.429-.099-.376.609-.207 1.107.375 1.107s1.059.9 1.059 2q0 2-2 2c-1.111 0-2-.667-2-1.5 0-.825-.418-1.5-.929-1.5-.51 0-1.603.675-2.428 1.5s-2.432 1.5-3.572 1.5c-1.404 0-2.071.644-2.071 2 0 1.467.667 2 2.5 2s2.5-.533 2.5-2q0-2 2-2t2 2 2 2 2-2 2-2 2 2c0 1.467.667 2 2.5 2s2.5-.533 2.5-2q0-2 2-2t2 2 2 2 2-2c0-1.467.667-2 2.5-2s2.5-.533 2.5-2q0-2 2-2t2 2 2 2 2 2 2 2 2-2c0-1.467.667-2 2.5-2s2.5.533 2.5 2q0 2 2 2t2-2 2-2 2 2 2 2 2-2c0-1.467.667-2 2.5-2s2.5.533 2.5 2q0 2 2 2t2-2 2-2 2-2 2-2 2 2c0 1.467.667 2 2.5 2s2.5-.533 2.5-2-.667-2-2.5-2c-2 0-2.5-.5-2.5-2.5 0-1.833-.533-2.5-2-2.5q-2 0-2-2c0-1.292.667-2 1.883-2 1.043 0 2.117.893 2.407 2 .313 1.197 1.364 2 2.616 2 1.427 0 2.094-.637 2.094-2 0-1.467-.667-2-2.5-2s-2.5-.533-2.5-2 .667-2 2.5-2 2.5-.533 2.5-2c0-1.363-.667-2-2.094-2-1.252 0-2.303.803-2.616 2-.29 1.107-1.364 2-2.407 2-1.216 0-1.883-.708-1.883-2q0-2 2-2c1.467 0 2-.667 2-2.5s-.533-2.5-2-2.5q-2 0-2-2c0-1.292.667-2 1.883-2 1.043 0 2.117.893 2.407 2 .313 1.197 1.364 2 2.616 2 1.427 0 2.094-.637 2.094-2 0-1.467-.667-2-2.5-2s-2.5-.533-2.5-2 .667-2 2.5-2 2.5-.533 2.5-2c0-1.363-.667-2-2.094-2-1.252 0-2.303.803-2.616 2-.29 1.107-1.364 2-2.407 2-1.216 0-1.883-.708-1.883-2q0-2 2-2c1.467 0 2-.667 2-2.5 0-2 .5-2.5 2.5-2.5 1.833 0 2.5-.533 2.5-2s-.667-2-2.5-2-2.5.533-2.5 2q0 2-2 2t-2-2-2-2-2-2-2-2-2 2m-222 4q0 2 2 2c1.467 0 2 .667 2 2.5s-.533 2.5-2 2.5q-2 0-2 2t-2 2-2 2 2 2 2 2 2 2c1.467 0 2 .667 2 2.5s-.533 2.5-2 2.5q-2 0-2 2t-2 2-2 2 2 2 2 2 2 2c1.467 0 2 .667 2 2.5s-.533 2.5-2 2.5q-2 0-2 2t2 2 2-2 2-2 2 2c0 1.467.667 2 2.5 2s2.5-.533 2.5-2q0-2 2-2t2 2 2 2 2-2 2-2 2 2c0 1.467.667 2 2.5 2s2.5-.533 2.5-2q0-2 2-2t2 2 2 2 2-2-2-2c-1.467 0-2-.667-2-2.5s.533-2.5 2-2.5q2 0 2-2t-2-2-2-2c0-1.292.667-2 1.883-2 1.178 0 2.051-.872 2.329-2.329.38-1.985.102-2.263-1.883-1.883-1.959.374-2.329.029-2.329-2.171 0-1.95-.51-2.617-2-2.617q-2 0-2-2c0-1.467-.667-2-2.5-2s-2.5.533-2.5 2q0 2-2 2t-2-2-2-2-2-2-2-2-2-2 2-2c1.467 0 2-.667 2-2.5s-.533-2.5-2-2.5q-2 0-2-2c0-1.467-.667-2-2.5-2s-2.5.533-2.5 2q0 2-2 2t-2-2-2-2-2 2m222 0c0 1.467-.667 2-2.5 2-2 0-2.5.5-2.5 2.5 0 1.833-.533 2.5-2 2.5s-2-.667-2-2.5-.533-2.5-2-2.5-2 .667-2 2.5.533 2.5 2 2.5q2 0 2 2t-2 2-2 2-2 2-2-2c0-1.467-.667-2-2.5-2s-2.5.533-2.5 2q0 2-2 2t-2 2-2 2c-1.467 0-2 .667-2 2.5 0 1.974-.506 2.5-2.406 2.5-1.914 0-2.3.409-1.884 2 .29 1.107 1.364 2 2.407 2 1.216 0 1.883.708 1.883 2s-.667 2-1.883 2c-1.043 0-2.117.893-2.407 2-.313 1.197-1.364 2-2.616 2-1.427 0-2.094-.637-2.094-2 0-1.467.667-2 2.5-2s2.5-.533 2.5-2-.667-2-2.5-2-2.5.533-2.5 2q0 2-2 2t-2 2 2 2c1.467 0 2 .667 2 2.5s-.533 2.5-2 2.5q-2 0-2 2t2 2 2-2c0-1.467.667-2 2.5-2 2 0 2.5-.5 2.5-2.5 0-1.833.533-2.5 2-2.5s2 .667 2 2.5.533 2.5 2 2.5q2 0 2 2t2 2 2-2c0-1.467.667-2 2.5-2s2.5.533 2.5 2q0 2 2 2t2-2 2-2 2 2 2 2 2-2c0-1.467.667-2 2.5-2s2.5.533 2.5 2q0 2 2 2t2-2 2-2c1.467 0 2-.667 2-2.5s-.533-2.5-2-2.5q-2 0-2-2t2-2 2-2-2-2-2-2 2-2c1.467 0 2-.667 2-2.5s-.533-2.5-2-2.5q-2 0-2-2t2-2 2-2-2-2-2-2 2-2c1.467 0 2-.667 2-2.5s-.533-2.5-2-2.5q-2 0-2-2t-2-2-2 2m-150 .5c0 .933.944 1.5 2.5 1.5s2.5-.567 2.5-1.5-.944-1.5-2.5-1.5-2.5.567-2.5 1.5m9 0c0 .833.889 1.5 2 1.5s2-.667 2-1.5-.889-1.5-2-1.5-2 .667-2 1.5m8 0c0 .933.944 1.5 2.5 1.5s2.5-.567 2.5-1.5-.944-1.5-2.5-1.5-2.5.567-2.5 1.5m-101.805 4c.02 1.65.244 2.204.498 1.231s.237-2.323-.037-3-.481.119-.461 1.769m20.805 0c0 1.833-.533 2.5-2 2.5q-2 0-2 2t-2 2-2 2 2 2 2 2 2 2c1.467 0 2 .667 2 2.5s-.533 2.5-2 2.5q-2 0-2 2t-2 2-2 2 2 2 2 2 2 2c1.467 0 2 .667 2 2.5 0 2 .5 2.5 2.5 2.5s2.5-.5 2.5-2.5c0-1.833.533-2.5 2-2.5s2 .667 2 2.5.533 2.5 2 2.5 2-.667 2-2.5.533-2.5 2-2.5 2 .667 2 2.5c0 2 .5 2.5 2.5 2.5s2.5-.5 2.5-2.5c0-1.833.533-2.5 2-2.5q2 0 2-2t-2-2-2-2 2-2 2-2-2-2c-1.467 0-2-.667-2-2.5 0-2-.5-2.5-2.5-2.5s-2.5.5-2.5 2.5c0 1.833-.533 2.5-2 2.5s-2-.667-2-2.5-.533-2.5-2-2.5q-2 0-2-2t-2-2-2-2c0-1.467-.667-2-2.5-2s-2.5-.533-2.5-2 .667-2 2.5-2c2 0 2.5-.5 2.5-2.5s-.5-2.5-2.5-2.5-2.5.5-2.5 2.5m214 0c0 2-.5 2.5-2.5 2.5-1.833 0-2.5.533-2.5 2q0 2-2 2t-2 2-2 2-2 2-2 2-2-2c0-1.467-.667-2-2.5-2s-2.5.533-2.5 2q0 2-2 2c-1.467 0-2 .667-2 2.5s-.533 2.5-2 2.5q-2 0-2 2t2 2 2 2-2 2-2 2 2 2c1.467 0 2 .667 2 2.5s.533 2.5 2 2.5 2-.667 2-2.5c0-2 .5-2.5 2.5-2.5s2.5.5 2.5 2.5c0 1.833.533 2.5 2 2.5s2-.667 2-2.5.533-2.5 2-2.5 2 .667 2 2.5.533 2.5 2 2.5 2-.667 2-2.5c0-2 .5-2.5 2.5-2.5s2.5.5 2.5 2.5c0 1.833.533 2.5 2 2.5s2-.667 2-2.5-.533-2.5-2-2.5q-2 0-2-2t2-2 2-2-2-2-2-2 2-2c1.467 0 2-.667 2-2.5s-.533-2.5-2-2.5q-2 0-2-2t2-2 2-2-2-2-2-2 2-2c1.467 0 2-.667 2-2.5s-.533-2.5-2-2.5-2 .667-2 2.5m-77 4.5q0 2 2 2t2-2-2-2-2 2M.158 197c0 1.375.227 1.938.504 1.25.278-.687.278-1.812 0-2.5-.277-.687-.504-.125-.504 1.25M17 197q0 2 2 2t2 2c0 1.467.667 2 2.5 2 2 0 2.5.5 2.5 2.5s-.5 2.5-2.5 2.5c-1.833 0-2.5.533-2.5 2q0 2-2 2t-2 2 2 2 2 2c0 1.467.667 2 2.5 2s2.5-.533 2.5-2q0-2 2-2t2 2 2 2 2-2 2-2 2 2c0 1.467.667 2 2.5 2s2.5-.533 2.5-2-.667-2-2.5-2-2.5-.533-2.5-2 .667-2 2.5-2 2.5-.533 2.5-2-.667-2-2.5-2-2.5.533-2.5 2q0 2-2 2t-2-2-2-2c-1.467 0-2-.667-2-2.5s-.533-2.5-2-2.5q-2 0-2-2c0-1.467-.667-2-2.5-2s-2.5-.533-2.5-2q0-2-2-2t-2 2m213 0q0 2-2 2t-2 2-2 2c-1.467 0-2 .667-2 2.5s-.533 2.5-2 2.5-2-.667-2-2.5c0-2-.5-2.5-2.5-2.5s-2.5.5-2.5 2.5c0 1.833-.533 2.5-2 2.5q-2 0-2 2t2 2 2 2-2 2-2 2 2 2 2-2c0-1.467.667-2 2.5-2s2.5.533 2.5 2q0 2 2 2t2-2 2-2 2 2 2 2 2-2c0-1.467.667-2 2.5-2s2.5-.533 2.5-2-.667-2-2.5-2-2.5-.533-2.5-2 .667-2 2.5-2c2 0 2.5-.5 2.5-2.5s-.5-2.5-2.5-2.5c-1.833 0-2.5-.533-2.5-2s.667-2 2.5-2 2.5-.533 2.5-2-.667-2-2.5-2-2.5.533-2.5 2m-149 4c0 1.356-.667 2-2.07 2-1.571 0-1.992.539-1.75 2.24.475 3.324 3.82 3.616 3.82.333 0-1.906.518-2.573 2-2.573q2 0 2-2t-2-2-2 2m9 0q0 2 2 2t2-2-2-2-2 2m8 0q0 2 2 2c1.467 0 2 .667 2 2.5 0 2 .5 2.5 2.5 2.5s2.5-.5 2.5-2.5c0-1.833.533-2.5 2-2.5s2 .667 2 2.5.533 2.5 2 2.5q2 0 2 2c0 1.292.667 2 1.883 2 1.043 0 2.117-.893 2.407-2 .313-1.197 1.364-2 2.616-2 1.567 0 2.094-.629 2.094-2.5 0-1.833.533-2.5 2-2.5s2 .667 2 2.5.533 2.5 2 2.5 2-.667 2-2.5-.533-2.5-2-2.5q-2 0-2-2t-2-2-2 2c0 1.363-.667 2-2.094 2-1.252 0-2.303-.803-2.616-2-.29-1.107-1.364-2-2.407-2-1.216 0-1.883.708-1.883 2q0 2-2 2t-2-2-2-2-2 2c0 1.467-.667 2-2.5 2s-2.5-.533-2.5-2q0-2-2-2t-2 2m43 0q0 2 2 2t2-2-2-2-2 2M.195 205.5c.02 1.65.244 2.204.498 1.231s.237-2.323-.037-3-.481.119-.461 1.769m3.805 0c0 1.786.54 2.5 1.893 2.5 2.018 0 3.093-1.696 2.376-3.75-.239-.687-1.298-1.25-2.352-1.25-1.378 0-1.917.703-1.917 2.5m111 0c0 1.833.533 2.5 2 2.5s2-.667 2-2.5-.533-2.5-2-2.5-2 .667-2 2.5m111 0c0 1.833-.533 2.5-2 2.5q-2 0-2 2t-2 2-2-2c0-1.467-.667-2-2.5-2s-2.5.533-2.5 2 .667 2 2.5 2 2.5.533 2.5 2q0 2 2 2t2-2 2-2 2 2 2 2 2-2-2-2-2-2 2-2c1.467 0 2-.667 2-2.5s-.533-2.5-2-2.5-2 .667-2 2.5M26 210c0 1.467-.667 2-2.5 2s-2.5.533-2.5 2 .667 2 2.5 2 2.5-.533 2.5-2q0-2 2-2t2 2 2 2 2-2-2-2-2-2-2-2-2 2M.158 214c0 1.375.227 1.938.504 1.25.278-.687.278-1.812 0-2.5-.277-.687-.504-.125-.504 1.25m.037 8.5c.02 1.65.244 2.204.498 1.231s.237-2.323-.037-3-.481.119-.461 1.769M55 227c0 1.467.667 2 2.5 2s2.5-.533 2.5-2-.667-2-2.5-2-2.5.533-2.5 2m128 0c0 1.467.667 2 2.5 2s2.5-.533 2.5-2-.667-2-2.5-2-2.5.533-2.5 2M.158 231c0 1.375.227 1.938.504 1.25.278-.687.278-1.812 0-2.5-.277-.687-.504-.125-.504 1.25M90 234.5c0 .833.889 1.5 2 1.5s2-.667 2-1.5-.889-1.5-2-1.5-2 .667-2 1.5m68 0c0 .833.889 1.5 2 1.5s2-.667 2-1.5-.889-1.5-2-1.5-2 .667-2 1.5"/><path fill="#1976D2" fill-opacity=".277" fill-rule="evenodd" d="M116.5 21.639c-28.078 3.171-49.086 13.56-68.279 33.765-12.78 13.454-21.132 28.378-25.961 46.39-2.339 8.725-2.6 11.475-2.584 27.206.017 15.833.276 18.453 2.715 27.5 9.267 34.371 35.731 62.775 69.109 74.174 21.009 7.175 49.123 7.123 70.387-.129 26.474-9.029 50.773-31.212 62.872-57.399 10.143-21.954 11.974-52.982 4.523-76.646-10.598-33.654-40.669-62.761-73.812-71.445-12.59-3.299-28.027-4.652-38.97-3.416m-18 22.441c-21.748 2.869-41.827 14.295-55.618 31.649-16.95 21.33-22.661 48.262-15.868 74.825 7.856 30.72 33.917 55.72 64.729 62.091 9.517 1.969 31.819 1.408 40.757-1.024 22.14-6.025 43.549-23.886 53.904-44.971 6.796-13.838 8.004-19.487 8.054-37.65.036-13.211-.292-16.652-2.218-23.299-6.691-23.084-23.31-42.907-44.988-53.66-13.771-6.831-33.231-10.009-48.752-7.961M73.25 57.259c-4.492 2.257-5.195 3.712-2.766 5.728.816.677 2.807 3.675 4.425 6.661 2.804 5.178 2.855 5.483 1.086 6.587-1.361.85-1.611 1.614-.939 2.869.82 1.532 1.806 1.223 9.402-2.946 4.667-2.562 8.491-4.883 8.498-5.158.008-.275-.373-1.109-.844-1.853-.661-1.044-1.333-1.099-2.937-.241-1.854.993-2.354.645-4.616-3.215-1.395-2.381-3.036-5.76-3.646-7.51-1.291-3.704-1.963-3.785-7.663-.922m12.5 20.481C82.037 79.772 79 81.821 79 82.293s1.79 3.923 3.977 7.668c2.964 5.074 4.685 6.986 6.75 7.499 5.967 1.481 9.884 8.661 7.33 13.434-.946 1.767-.514 3.213 2.701 9.034l3.826 6.929 6.661-3.715c3.664-2.043 6.963-4.016 7.33-4.384.68-.68-23.482-44.776-24.512-44.736-.31.012-3.6 1.685-7.313 3.718m-8.711 21.025C62.707 113.635 60 135.465 70.188 154c2.811 5.113 9.397 13 10.857 13 .351 0 1.45-2.679 2.441-5.954l1.803-5.953-3.095-3.525c-5.305-6.042-5.654-16.654-.76-23.071C84.44 124.556 90.619 121 94.46 121c2.811 0 3.2-1.545 1.09-4.329-1.108-1.462-1.791-1.613-3.402-.75-3.719 1.99-7.185 1.242-10.748-2.321-4.58-4.58-4.609-8.591-.094-13.106 2.878-2.878 3.136-3.536 2-5.091-1.203-1.644-1.696-1.379-6.267 3.362m6.135 3.549C78.844 106.924 81.767 114 88 114c6.547 0 9.449-7.929 4.365-11.927-3.438-2.705-6.498-2.625-9.191.241m29.076 21.504c-4.537 2.495-8.243 4.794-8.235 5.109s.424 1.219.924 2.009c.79 1.247 1.136 1.247 2.647 0 1.01-.834 1.882-1.017 2.081-.436.187.55 1.253 2.497 2.369 4.326l2.028 3.327 4.718-2.723c2.595-1.497 4.88-2.856 5.077-3.019s-.662-1.73-1.91-3.482c-1.875-2.634-2.062-3.518-1.079-5.093.655-1.048.839-2.502.41-3.23-.6-1.019-2.684-.278-9.03 3.212M127 144.139c-10.725 6.118-19.633 11.235-19.795 11.371-.3.25 1.864 9.71 2.361 10.325.217.268 26.575-15.003 32.37-18.753 1.164-.754 1.198-1.216.176-2.447-1.065-1.283-.593-1.932 3.064-4.211 2.378-1.481 4.473-2.819 4.655-2.973.529-.447-1.828-4.452-2.616-4.444-.393.005-9.49 5.014-20.215 11.132m-39.508 13.07C87.057 158.388 80 182.298 80 182.593c0 .07 6.75.201 15 .291 13.766.15 14.998.017 14.972-1.61-.015-.976-1.261-6.949-2.769-13.274l-2.742-11.5-8.246-.291c-6.038-.213-8.374.055-8.723 1M67 192v6h89v-12H67z"/><path fill="#1976D2" fill-opacity=".448" fill-rule="evenodd" d="M105.909 23.492c-38.783 7.34-72.472 38.624-82.931 77.008-3.281 12.044-3.882 37.522-1.189 50.5 4.083 19.687 12.534 35.87 26.356 50.472 10.482 11.074 19.003 17.468 31.355 23.531 12.283 6.029 21.635 8.663 36.15 10.18 20.387 2.13 39.692-1.267 57.85-10.18 12.099-5.939 20.623-12.27 30.647-22.761 17.626-18.45 26.421-37.788 28.882-63.506 1.874-19.581-1.585-39.121-9.955-56.236-13.899-28.422-39.533-49.57-69.899-57.667-10.172-2.712-36.131-3.449-47.266-1.341m-11.18 20.479c-6.732 1.226-17.165 4.711-23.143 7.73-20.873 10.54-38.268 31.37-44.653 53.47-3.046 10.545-3.741 29.731-1.481 40.902 6.368 31.479 30.473 57.147 62.048 66.071 6.559 1.854 10.522 2.264 22 2.278 16.161.019 23.359-1.461 36-7.403 10.557-4.962 15.215-8.257 24.218-17.132 12.257-12.083 19.165-23.713 23.395-39.387 3.058-11.331 3.064-31.627.013-43-7.841-29.229-31.4-53.272-60.311-61.552-8.223-2.355-29.85-3.477-38.086-1.977"/></svg>